<svg version="1.2" xmlns="http://www.w3.org/2000/svg" viewBox="0 0 4000 4000" width="350" height="350">
	<title>59726f62-3098-4c01-929a-8ec64a63f1b8</title>
	<style>
		.s0 { fill: #ffffff } 
		.s1 { fill: #0d9488 } 
		.s2 { fill: #371a45 } 
		.s3 { fill: #615c63 } 
		.s4 { fill: #514c54 } 
		.s5 { fill: #0d9488 } 
		.s6 { fill: #0d9488 } 
		.s7 { fill: #ffdfca } 
		.s8 { fill: #e8b39c } 
		.s9 { fill: #bbbbbc } 
		.s10 { fill: #0d9488 } 
		.s11 { fill: #0d9488 } 
		.s12 { fill: #66524b } 
		.s13 { fill: #0d9488 } 
		.s14 { fill: #dce2ea } 
		.s15 { fill: #0d9488 } 
		.s16 { fill: #0d9488} 
		.s17 { fill: #0d9488 } 
		.s18 { fill: #513f3a } 
		.s19 { fill: #0d9488 } 
	</style>
	<g id="Layer 1">
		<g id="&lt;Group&gt;">
			<g id="&lt;Group&gt;">
				<g id="&lt;Group&gt;">
					<g id="&lt;Group&gt;">
						<path id="&lt;Path&gt;" class="s0" d="m3330.3 3125l-165.7 316.6c-3.9 7.3-11.5 11.9-19.9 11.9h-160.7c-12.8 0-23-10.8-22.3-23.6 1.2-22.4 7.4-38.6 11.2-46.5 0.1-0.1 0.1-0.1 0.1-0.1 1.6-3.5 2.9-5.4 2.9-5.4l41.7-49.6 1.8-2.2v-84.7l98.4-200.3c12.4 0.7 24.2 1.9 35.4 3.4 122.4 17.1 177.1 80.5 177.1 80.5z"/>
					</g>
					<g id="&lt;Group&gt;">
						<path id="&lt;Path&gt;" class="s1" d="m3330.3 3125l-165.7 316.6c-3.9 7.3-11.5 11.9-19.9 11.9h-160.7c-12.8 0-23-10.8-22.3-23.6 1.7-32.6 14.2-52 14.2-52l41.7-49.6c22.5 3.4 58.5 12.2 78 33.8 29.8 32.9 40 58.4 54.1 31.8 14.3-26.7 118.9-222.9 118.9-222.9 0 0-36.3-22.1-56.7-31.1-20.3-9-44.2-39.1-53.6-75.7-1.8-6.9-3.5-13.5-5.1-19.7 122.4 17.1 177.1 80.5 177.1 80.5z"/>
					</g>
					<g id="&lt;Group&gt;" style="opacity: .3">
						<path id="&lt;Path&gt;" class="s2" d="m3330.3 3125l-165.7 316.6c-3.9 7.3-11.5 11.9-19.9 11.9h-160.7c-12.8 0-23-10.8-22.3-23.6 1.2-22.4 7.4-38.6 11.2-46.5 0.1-0.1 0.1-0.1 0.1-0.1 0 0 9.1 33.5 76.1 33.5 67 0 85.7 20 129.9-70.4 44.2-90.2 119.5-256.9-61.2-305.3 12.4 0.7 24.2 1.9 35.4 3.4 122.4 17.1 177.1 80.5 177.1 80.5z"/>
					</g>
					<g id="&lt;Group&gt;">
						<g id="&lt;Group&gt;">
							<path id="&lt;Path&gt;" class="s2" d="m3137.5 3429.6h-174.5c-7.1 0-12.8-5.7-12.8-12.8 0-7.1 5.7-12.8 12.8-12.8h166.9l163.7-307.2c3.4-6.2 11.1-8.6 17.4-5.2 6.2 3.3 8.6 11.1 5.3 17.3l-167.5 313.9c-2.2 4.2-6.5 6.8-11.3 6.8z"/>
						</g>
						<g id="&lt;Group&gt;">
							<path id="&lt;Path&gt;" class="s2" d="m3271.9 3177.6c-1.6 0-3.2-0.3-4.8-0.9-12.7-5.2-76.8-31.2-87.4-37.6-3.6-2.2-14.6-8.7-40.1-91-2-6.7 1.7-13.9 8.5-16 6.8-2.1 13.9 1.7 16 8.4 9.9 31.9 23.9 69.8 29.6 77.1 9.5 5.1 55.3 24.1 83 35.3 6.6 2.6 9.8 10.1 7.1 16.7-2 5-6.8 8-11.9 8z"/>
						</g>
						<g id="&lt;Group&gt;">
							<path id="&lt;Path&gt;" class="s2" d="m3137.5 3429.6c-4.8 0-9.5-2.8-11.6-7.5-32-71-107.7-83.2-108.4-83.4-7-1-11.8-7.5-10.8-14.5 1.1-7 7.6-11.9 14.6-10.8 3.7 0.6 90.2 14.6 127.9 98.2 2.9 6.4 0.1 14-6.4 16.9-1.7 0.8-3.5 1.1-5.3 1.1z"/>
						</g>
						<g id="&lt;Group&gt;">
							<path id="&lt;Path&gt;" class="s2" d="m3067.3 3356q-0.2 0-0.5 0c-7.1-0.3-12.6-6.2-12.3-13.3 0-0.8 3.1-81.8-5.6-135.3-1.1-7 3.6-13.6 10.6-14.7 7-1.1 13.6 3.6 14.7 10.6 9.1 56.1 6 137 5.9 140.4-0.3 6.9-5.9 12.3-12.8 12.3z"/>
						</g>
					</g>
					<g id="&lt;Group&gt;">
						<path id="&lt;Compound Path&gt;" class="s2" d="m3144.7 3466.4h-160.7c-9.7 0-18.8-3.9-25.5-11-6.6-7-10.1-16.5-9.6-26.1 1.8-35.6 15.6-57.4 16.2-58.3q0.4-0.7 0.9-1.3l40.6-48.3v-80c0-1.9 0.4-3.9 1.3-5.6l98.4-200.4c2.3-4.6 7.2-7.4 12.3-7.1 150.8 8.5 218.6 85.1 221.4 88.3 3.4 4 4.1 9.7 1.7 14.4l-165.8 316.5c-6.1 11.6-18 18.9-31.2 18.9zm-158.4-81c-1.8 3.1-10.5 19.6-11.8 45.2-0.2 2.7 0.8 5.2 2.6 7.2 1.8 1.9 4.3 2.9 6.9 2.9h160.7c3.6 0 6.8-1.9 8.5-5.1l161.4-308.2c-18.4-16.9-79.1-64.6-189-73l-93.4 190v81.7c0 3-1.1 5.9-3 8.2zm33.1-59.3z"/>
					</g>
				</g>
				<g id="&lt;Group&gt;">
					<g id="&lt;Group&gt;">
						<path id="&lt;Path&gt;" class="s0" d="m2782.5 3425.7c-1.1 15.7-14.1 27.8-29.8 27.8h-422.1c-22.3 0-36.7-23.5-26.6-43.5 8-15.9 20.3-28.8 34.2-40.2 25.3-21 55.8-37.4 74.5-59q2.3-2.5 4.2-5.1c34.5-46.3 69.8-85.7 69.8-85.7h268.4c8.7 18.1 14.9 38.2 19.2 58.9 11.7 54.8 10.4 113.4 8.2 146.8z"/>
					</g>
					<g id="&lt;Group&gt;">
						<path id="&lt;Path&gt;" class="s1" d="m2782.5 3425.7c-1.1 15.7-14.1 27.8-29.8 27.8h-422.1c-22.3 0-36.7-23.5-26.6-43.5 22.5-44.8 79.7-65.7 108.7-99.2 11.6 5.4 26.9 16.5 36 38.8 16.2 39.8 31.1 67.2 31.1 67.2h178.2c0 0 62.6-128.4 116.3-137.9 11.7 54.8 10.4 113.4 8.2 146.8z"/>
					</g>
					<g id="&lt;Group&gt;" style="opacity: .3">
						<path id="&lt;Path&gt;" class="s2" d="m2782.5 3425.7c-1.1 15.7-14.1 27.8-29.8 27.8h-422.1c-22.3 0-36.7-23.5-26.6-43.5 8-15.9 20.3-28.8 34.2-40.2 2.9 10.4 16.1 40.3 72.7 43.3 68.9 3.7 239.5 0 239.5 0 0 0 49.8-1.3 79.8-48.3 30.1-47 5-116.7-103.6-123.4-28.8-1.7-39.8-10.2-39.4-21.4h167.9c8.7 18.1 14.9 38.2 19.2 58.9 11.7 54.8 10.4 113.4 8.2 146.8z"/>
					</g>
					<g id="&lt;Group&gt;">
						<g id="&lt;Group&gt;">
							<path id="&lt;Path&gt;" class="s2" d="m2783 3429.6h-481.5c-7 0-12.8-5.7-12.8-12.8 0-7.1 5.8-12.8 12.8-12.8h481.5c7.1 0 12.8 5.7 12.8 12.8 0 7.1-5.7 12.8-12.8 12.8z"/>
						</g>
						<g id="&lt;Group&gt;">
							<path id="&lt;Path&gt;" class="s2" d="m2471.6 3429.6c-6 0-11.3-4.2-12.5-10.3-16.8-83.6-50.3-93.8-50.6-93.9-6.9-1.4-11.5-8.1-10.1-15.1 1.4-6.9 8.1-11.4 15.1-10 5.1 1 50.4 12.7 70.7 114 1.4 6.9-3.1 13.7-10.1 15.1q-1.2 0.2-2.5 0.2z"/>
						</g>
						<g id="&lt;Group&gt;">
							<path id="&lt;Path&gt;" class="s2" d="m2666 3429.6c-1.7 0-3.3-0.3-4.9-0.9-6.5-2.7-9.7-10.2-7-16.7 1.9-4.7 47.1-113.6 113.8-147.3 6.4-3.2 14.1-0.7 17.3 5.6 3.1 6.4 0.6 14.1-5.7 17.2-58.2 29.4-101.2 133.1-101.7 134.2-2 4.9-6.8 7.9-11.8 7.9z"/>
						</g>
						<g id="&lt;Group&gt;">
							<path id="&lt;Path&gt;" class="s2" d="m2441.3 3349.6c-2.7 0-5.4-0.8-7.7-2.5-5.6-4.3-6.8-12.3-2.6-18 0.7-0.8 62.3-83.3 88-116.9 4.3-5.6 12.3-6.7 17.9-2.4 5.7 4.3 6.7 12.4 2.4 18-25.5 33.4-87.1 115.8-87.7 116.7-2.6 3.3-6.4 5.1-10.3 5.1z"/>
						</g>
					</g>
					<g id="&lt;Group&gt;">
						<path id="&lt;Compound Path&gt;" class="s2" d="m2752.6 3466.4h-422c-14.9 0-28.5-7.6-36.3-20.3-7.9-12.8-8.5-28.4-1.8-41.9 14.9-29.6 42.1-48.7 68.3-67.2 18.1-12.8 35.3-24.8 45.8-39 34.5-46.2 70.2-86.1 70.5-86.5 2.4-2.7 5.9-4.3 9.6-4.3h268.4c4.9 0 9.4 2.8 11.6 7.3 32.5 68 31.9 162 28.6 212-1.5 22.4-20.2 39.9-42.7 39.9zm-260.2-233.6c-9.9 11.4-37.9 44-65.2 80.6-13 17.4-32.7 31.2-51.7 44.6-23.6 16.6-48.1 33.8-60.1 57.7-2.8 5.6-2.5 11.7 0.7 17 3.2 5.1 8.5 8 14.5 8h422c9 0 16.5-6.9 17.1-15.8 3-45.7 3.8-129.9-22.9-192.1z"/>
					</g>
				</g>
				<g id="&lt;Group&gt;">
					<g id="&lt;Group&gt;">
						<path id="&lt;Path&gt;" class="s3" d="m2923.9 2844.1c0 0 112.1 124.4 205.3 182.5-10.3 87.1-48.8 167.3-117.1 240.4 0 0-203.6-64.3-266.1-190.7z"/>
					</g>
					<g id="&lt;Group&gt;">
						<path id="&lt;Path&gt;" class="s4" d="m3070.2 3164.8c0 0-187.1-59.1-257.6-175.3l-66.6 86.8c62.5 126.4 266.1 190.7 266.1 190.7 42.1-45.1 72.8-92.8 92.7-143.3q-15.8 20.9-34.6 41.1z"/>
					</g>
					<g id="&lt;Group&gt;">
						<path id="&lt;Compound Path&gt;" class="s2" d="m3012.1 3279.8q-1.9 0-3.8-0.6c-8.6-2.7-209.6-67.4-273.7-197.2-2.2-4.4-1.7-9.6 1.3-13.5l177.8-232.1c2.3-3.1 5.8-4.9 9.6-5.1 3.8-0.1 7.5 1.4 10.1 4.3 1.1 1.2 112 123.7 202.6 180.1 4.2 2.6 6.6 7.4 6 12.4-10.7 90.1-51.2 173.4-120.5 247.6-2.5 2.7-5.9 4.1-9.4 4.1zm-250.9-202.2c56 102.3 210.9 161.8 247.1 174.6 60.1-66.4 96.1-140 107.2-219.2-76.5-49.7-161.5-137.6-190.7-169z"/>
					</g>
				</g>
				<g id="&lt;Group&gt;">
					<g id="&lt;Group&gt;">
						<path id="&lt;Path&gt;" class="s3" d="m3227.3 2450c-16.9 145.2-122 282.2-258.3 407.3-167.3 153.3-210.1 370.3-210.1 370.3-95.9 18.1-190.4 18.8-283.3 0-24.9-254.3 74.6-464.3 74.6-464.3-43.5-102.4-57-181.2-59.6-234.4-2.5-53.1 5.7-80.7 5.7-80.7l681.8-91.8 46.5-6.3c5.9 33.7 6.6 67 2.7 99.9z"/>
					</g>
					<g id="&lt;Group&gt;">
						<path id="&lt;Path&gt;" class="s4" d="m2550.2 2769c0 0 81.6-131.1 111.6-158 30.1-27-131.6-55-155.4-11.4-23.9 43.5 43.8 169.4 43.8 169.4z"/>
					</g>
					<g id="&lt;Group&gt;">
						<path id="&lt;Path&gt;" class="s4" d="m3224.6 2350.1l-46.5 6.3q0 0 0 0l-681.8 91.8c0 0-8.2 27.6-5.7 80.7 56.4 3.8 201.3 10.5 370.9-5.4 143.3-13.4 217.2 167.8 104.9 257.8q-1.7 1.4-3.4 2.7c-168.3 132.7-219.3 308.9-277.3 380.8-58.1 71.9-210.1 62.8-210.1 62.8 92.9 18.8 187.4 18.1 283.3 0 0 0 42.8-217 210.1-370.3 136.3-125.1 241.4-262.1 258.3-407.3 3.9-32.9 3.2-66.2-2.7-99.9z"/>
					</g>
					<g id="&lt;Group&gt;">
						<path id="&lt;Path&gt;" class="s2" d="m2538.6 2757.8c16.9-32.8 39.6-61.8 64.6-88.6 8.4-8.7 17.5-16.8 27.4-23.9 2.4-1.8 5.9 1.3 4.3 3.8-17.8 30.9-39.5 58.7-56.8 89.6-4.8 8.6-12.3 21.9-16.5 30.4-7.8 14.8-29.8 4.1-23-11.3z"/>
					</g>
					<g id="&lt;Group&gt;">
						<path id="&lt;Compound Path&gt;" class="s2" d="m2615 3254.2c-48.2 0-95.6-4.7-141.9-14-5.5-1.1-9.7-5.7-10.2-11.3-23.1-235.7 57.8-430.9 73.3-465.8-85.1-203.1-53.5-313.9-52.1-318.5 1.4-4.9 5.5-8.4 10.5-9.1l728.3-98.1c6.8-0.9 13.1 3.7 14.3 10.5 28.4 162.8-56.5 332.5-259.6 518.8-162 148.6-205.7 361.3-206.1 363.4-1.1 5.1-5.1 9.1-10.2 10.1-49.3 9.3-98.2 14-146.3 14zm-127.5-37.3c83.9 15.7 171.5 15.5 260.7-0.3 9.9-42.6 60.5-229.8 212.1-368.8 190.9-175.1 274-333.4 253.6-483.3l-707 95.2c-5.1 28.2-16 131.6 55.1 298.6 1.5 3.4 1.4 7.2-0.2 10.5-1 2-95.2 204.7-74.3 448.1z"/>
					</g>
				</g>
				<g id="&lt;Group&gt;">
					<g id="&lt;Group&gt;">
						<path id="&lt;Path&gt;" class="s5" d="m3245.1 2370.8c-431.2 141-758.4 91.3-758.4 91.3-3-65.8-12.9-153.1-21.3-219.3-7.1-56.1-13.2-97.2-13.2-97.2-60.7-31.8-204.8-116.1-204.8-116.1 15.3-54.7 43.7-120 66.7-169 20.1-42.6 36.1-72.8 36.1-72.8 0 0 331.3-137.5 408-156.2 37.7-9.1 100.5-9.8 165.7 16.6 41 16.6 83 44 120.3 86.6v0.1c23.9 27.3 45.8 60.9 64.3 102 93.3 207.3 136.6 534 136.6 534z"/>
					</g>
					<g id="&lt;Group&gt;">
						<path id="&lt;Path&gt;" class="s6" d="m3245.1 2370.8c-431.2 141-758.4 91.3-758.4 91.3-3-65.8-12.9-153.1-21.3-219.3 0 0 48.2 151.6 236.8 130.8 188.7-20.7 487.2-286.9 342-638.8 23.9 27.3 45.8 60.9 64.3 102 93.3 207.3 136.6 534 136.6 534z"/>
					</g>
					<g id="&lt;Group&gt;">
						<path id="&lt;Path&gt;" class="s6" d="m2387.9 1961.6l-58.8 108.3 123.1 75.7c0 0-33.1-132.5-50.8-183-2.1-6.1-10.4-6.7-13.5-1z"/>
					</g>
					<g id="&lt;Group&gt;">
						<path id="&lt;Path&gt;" class="s6" d="m2923.9 1648.1c-60.7 67.2-142.3 135-243 167.9-221.7 72.7-350 48.3-366.8 44.5 20.1-42.6 36.1-72.8 36.1-72.8 0 0 331.3-137.5 408-156.2 37.7-9.1 100.5-9.8 165.7 16.6z"/>
					</g>
					<g id="&lt;Group&gt;">
						<path id="&lt;Path&gt;" class="s2" d="m2514.5 1862.6c51.6 47.7 152.6 38.1 208.3 1.1 21.2-13.3 40.9-30.2 57.3-49.5 2.3-2.9 7 0.3 5.1 3.5-41.1 71.6-127.4 110.1-208.2 91.9-13.4-3.2-26.4-8-38.3-15-11.7-7.2-22.5-15.8-30.1-28-1-1.7-0.5-3.9 1.2-4.9 1.6-1 3.5-0.5 4.7 0.9z"/>
					</g>
					<g id="&lt;Group&gt;">
						<path id="&lt;Path&gt;" class="s2" d="m2439.6 2147.9c-10.7-59.3-25.9-126-40.2-184.5-0.7-2.6 3.2-4.3 4.5-1.8 23.7 42.1 37.5 88.5 50.1 134.8 4.1 15.5 7.7 31 10.8 46.9 1.3 7-3.2 13.7-10.2 15-7 1.4-13.8-3.3-15-10.4z"/>
					</g>
					<g id="&lt;Group&gt;">
						<path id="&lt;Compound Path&gt;" class="s2" d="m2637.4 2483.1c-95.2 0-151.3-8.2-152.7-8.4-6-0.9-10.6-6-10.8-12.1-4.9-107.2-28.4-274.1-33.4-308.7-63.2-33.6-198.2-112.5-199.6-113.3-5-3-7.4-8.9-5.9-14.5 28.9-102.5 100.9-238.7 103.9-244.4 1.4-2.6 3.7-4.7 6.4-5.8 13.6-5.7 333.1-138.1 409.9-156.8 97.6-23.8 275.4 13.2 365 212.4 92.9 206.6 137.2 534.3 137.6 537.6 0.8 6.1-2.9 12-8.7 13.9-253.9 83-473.8 100.1-611.7 100.1zm-138.5-32.4c58.3 6.6 355.9 32 732-88.8-8.4-57.5-52-337.5-134.1-519.9-39.1-86.8-99.4-149.3-174.6-180.8-62.9-26.2-124.4-26.1-161-17.2-70.2 17.1-362.8 137.6-401.8 153.8-11.8 22.7-70.1 136.8-96.9 225.7 32 18.6 144.4 83.9 195.6 110.8 3.7 1.9 6.2 5.4 6.8 9.4 0.3 1.9 27.4 185.7 34 307z"/>
					</g>
				</g>
				<g id="&lt;Group&gt;">
					<g id="&lt;Group&gt;">
						<g id="&lt;Group&gt;">
							<path id="&lt;Path&gt;" class="s7" d="m2445.2 2111.4c-1.5 6.8-3 13.3-4.7 19.6-38 142.3-128.8 155.2-180.5 116.9-35.6-26.5-102.8-92.7-144.1-134.4-21.1-21.3-35.5-36.3-35.5-36.3-59.6 51.3-113.5 11.4-113.5 11.4 0 0-8.8 21.8-52.3 4.1-43.6-17.6-29.6-74.6-29.6-74.6-5.7-34.7 32.7-70.4 32.7-70.4-98.5-1.1-107.8-66.4 7.2-77.8 115.1-11.4 234.3 13.5 286.1 55 51.8 41.4 234.2 186.5 234.2 186.5z"/>
						</g>
						<g id="&lt;Group&gt;">
							<path id="&lt;Path&gt;" class="s8" d="m1905.6 2088.1c0 0-9-34.7 7.9-72.4 0 0 8-30.1 17.6-39.4q0.2-0.1 0.3-0.3c7.4-6.7 19.4-2.2 21 7.6 2 12 8.4 35 28.2 40.1 0 0-5.7 19.3-6.6 41.6-0.8 21.5-19.6 36.3-40.9 33-25-3.8-25.8-9.7-25.8-9.7"/>
						</g>
						<g id="&lt;Group&gt;">
							<path id="&lt;Path&gt;" class="s8" d="m1927.5 1947.6c0 0-62.2-8.2-67.3-19.1-5.2-10.9 18.6-30.6 100-21.3 81.3 9.4 118.6 63.2 124.9 84 6.2 20.7-18.2 99.2-27.5 102.6-9.4 3.3-86.3-2.4-86.3-2.4 0 0-2.2-33.2 1.1-39.8 3.3-6.5 21.4-24.4 13.9-46-7.5-21.7-10.7-52.3-10.7-52.3z"/>
						</g>
						<g id="&lt;Group&gt;">
							<path id="&lt;Path&gt;" class="s8" d="m2440.5 2131c-38 142.3-128.8 155.2-180.5 116.9-35.6-26.5-102.8-92.7-144.1-134.4 5.9-10.9 13.9-20.9 24.4-29.7 0 0 11.2-11.1 21-29.8 4.9-9.4 17.5-11.4 25.2-4.2 39.5 37 137.3 126.8 162.5 134.2 25.9 7.5 74.2-36.2 91.5-53z"/>
						</g>
						<g id="&lt;Group&gt;">
							<path id="&lt;Path&gt;" class="s2" d="m1917.8 1934.8c26.6 3 52.2 8.8 78 15.4 3.3 0.8 5.3 4.2 4.4 7.6-0.8 2.9-3.6 4.8-6.5 4.6q-19.3-1.6-38.5-2.2c-12.4-0.3-25.6-0.5-37.7 0.3-18.6 0.6-18.2-26.8 0.3-25.7z"/>
						</g>
						<g id="&lt;Group&gt;">
							<path id="&lt;Path&gt;" class="s2" d="m1914.2 1967c0.8 18.8 8.1 41.5 26.5 49.5 9.1 4.2 21.2 6.5 30.5 2.1 1.9-0.9 2.7-3.4 2.1-5.4-10.8-17-18.7-39.6-11-60.1 4.7-12.4 23.2-7.1 20.6 5.9-1.3 6.2-0.9 12.5 0.9 19 2.5 10 8.6 16.3 13.4 26.4 9.1 25.6-13.9 43.6-38 42.8-44.9-0.2-71.2-38.6-70.7-80.7 0.6-17.2 25.8-16.7 25.7 0.5z"/>
						</g>
						<g id="&lt;Group&gt;">
							<path id="&lt;Path&gt;" class="s2" d="m1995.5 2035.1c-8.9 31.6-41.4 45.3-69.9 30.7-7.5-3.9-14.3-8.5-20.5-14-0.4-0.4-0.5-1-0.1-1.4 0.3-0.3 0.7-0.4 1.1-0.3 13.6 3.4 29.9 7.9 43.3 3.9 11.7-3.3 18.5-13.6 21-24.7 3.8-17.2 29.3-11.3 25.1 5.8z"/>
						</g>
						<g id="&lt;Group&gt;">
							<path id="&lt;Path&gt;" class="s2" d="m1966.9 2101.5c-3.8 0-7.5-1.7-10.1-4.9-4.4-5.6-3.4-13.7 2.1-18.1 3.4-2.7 4.6-15.3 3.4-24.4-1-7 3.9-13.5 10.9-14.5 7-1 13.5 3.9 14.6 10.9 0.8 5.7 4 34.8-12.9 48.2-2.4 1.9-5.2 2.8-8 2.8z"/>
						</g>
						<g id="&lt;Group&gt;">
							<path id="&lt;Compound Path&gt;" class="s2" d="m2315.4 2279.2c-22.3 0-44.3-7.2-63-21.1-46.8-34.7-144.3-134-173.2-163.7-43.3 31.3-86.1 23.1-110 10.6-9.6 7.1-27.6 12.5-59.4-0.4-41.1-16.6-42.9-62.8-37.8-87-2.6-22.4 8.7-44 19.5-59-38.1-5.4-62-21.9-63-44.8-1-22.7 23.4-49.5 95.2-56.6 115.1-11.4 239.2 12.8 295.3 57.6 51.2 41 232.3 185.1 234.2 186.6 3.8 3 5.5 7.9 4.5 12.7-17.9 83.3-55.5 139.5-105.6 158.4-12 4.5-24.4 6.7-36.7 6.7zm-235-214.8c3.4 0 6.7 1.3 9.2 3.9 1.3 1.3 125.7 130.3 178.1 169.3 22.3 16.6 49.7 20.6 75.3 10.9 40.3-15.1 71.4-61.9 87.9-132.1-32.6-25.9-182.1-144.9-227.9-181.6-50.5-40.3-169.5-62.8-276.8-52.1-54.7 5.4-72.5 22.8-72.1 29.9 0.3 7.5 19.3 21.8 63.7 22.2 5.2 0.1 9.9 3.3 11.8 8.2 1.9 4.9 0.6 10.4-3.2 14-9.2 8.7-32.5 36.3-28.7 59 0.2 1.8 0.2 3.5-0.2 5.2-0.5 1.8-10.7 46.5 21.9 59.7 23.7 9.6 33.5 5.3 35.7 2.5 1.1-3.9 3.9-6.3 7.8-7.7 4-1.5 8.2 0.1 11.6 2.6 1.9 1.3 46.8 32.9 97.5-10.8 2.4-2.1 5.4-3.1 8.4-3.1z"/>
						</g>
					</g>
					<g id="&lt;Group&gt;">
						<g id="&lt;Group&gt;">
							<path id="&lt;Path&gt;" class="s7" d="m2045.2 1962.7c0 0 33.6 16 37.8 31.6 4.1 15.5-17.6 63.7-18.9 88.6-1.3 24.9 54.6 59.1 95.6-33.2 0 0 2.2-52-30.2-74.8-32.5-22.8-84.3-12.2-84.3-12.2z"/>
						</g>
						<g id="&lt;Group&gt;">
							<path id="&lt;Path&gt;" class="s8" d="m2086.1 2005.6c0 0-9.3 40.8 16.3 57.7 25.7 17 57.3-6.3 57.3-6.3 0 0-33.4 63.4-75.3 45.7-41.8-17.7 1.7-97.1 1.7-97.1z"/>
						</g>
						<g id="&lt;Group&gt;">
							<path id="&lt;Path&gt;" class="s2" d="m2046.9 1959c17.2 4.7 35.7 12.7 44.6 29.4 4 9 2 19 0.5 27.8-2.4 12.3-5.5 23.6-8.5 34.8-2.6 10.6-5.8 22.5-6.3 32.8 0.9 5.5 6.1 9.6 11.2 11.7 28 8.8 50.2-28.7 66.2-48 3.5-4.8 11.4-1.2 10.1 4.5-4.9 24.8-18.3 50-41 63.5-19.9 12.4-49.3 10.3-64.4-9.3-4.9-6-8.5-14.1-8.4-22.2 0.2-8 2.1-15.8 4-22.5 5.3-21.5 16-42.3 18.3-63.8 0.1-1.4-0.5-2.3-1.1-3.7-7.2-10.7-18.2-18.4-28.7-27.6-3.5-2.6-0.7-8.6 3.5-7.4z"/>
						</g>
					</g>
				</g>
				<g id="&lt;Group&gt;">
					<g id="&lt;Group&gt;">
						<g id="&lt;Group&gt;">
							<path id="&lt;Path&gt;" class="s9" d="m1914.4 2483.8l381.6-209c16.8-9.2 37.9-3.5 47.7 13l1 1.8c10.4 17.4 4.2 39.9-13.6 49.5l-382.7 207.2c-17 9.2-38.4 3.1-47.9-13.8-9.8-17.3-3.5-39.2 13.9-48.7z"/>
						</g>
						<g id="&lt;Group&gt;">
							<path id="&lt;Compound Path&gt;" class="s2" d="m1931.7 2563.3c-17 0-33.5-8.9-42.4-24.5-6.4-11.4-7.9-24.5-4.4-37.1 3.6-12.5 11.9-22.9 23.3-29.2l381.6-209c23-12.5 51.5-4.8 64.9 17.7l1 1.8c6.8 11.5 8.6 24.8 5.1 37.6-3.5 12.9-11.9 23.4-23.6 29.7l-382.7 207.2c-7.2 4-15.1 5.8-22.8 5.8zm-11.2-68.3c-5.3 3-9.2 7.8-10.9 13.7-1.7 5.9-1 12.1 2 17.5 6.1 10.7 19.9 14.7 30.7 8.8l382.7-207.2c5.5-3 9.4-7.9 11.1-14 1.7-6 0.8-12.3-2.4-17.7l-1.1-1.8c-6.3-10.5-19.7-14.2-30.5-8.3z"/>
						</g>
					</g>
					<g id="&lt;Group&gt;">
						<g id="&lt;Group&gt;">
							<path id="&lt;Path&gt;" class="s7" d="m1937.3 2132.8c-1.3 14.2-38.3 20-38.3 20 0 0-4.4 24.8-34.5 30.2l-61.2 114.8-9.7 18.2-32.4 60.7c0 0-179.3 55.5-206.2-50 0 0 76.3-71.3 141.5-135.2 33-32.4 63.2-62.9 79.2-81.3 0 0 24.9-105.4 47.7-104.6 22.8 0.8 25.2 45.3 25.2 45.3q0 0 0-0.1c2-2.7 30.3-42.1 47-35.1 17.2 7.2 0 58.4 0 58.4 0 0 25.5-13.1 32.8-0.7 7.3 12.4-25.2 41.3-25.2 41.3 0 0 35.5 4 34.1 18.1z"/>
						</g>
						<g id="&lt;Group&gt;">
							<path id="&lt;Path&gt;" class="s8" d="m1937.3 2132.8c-1.3 14.2-38.3 20-38.3 20 0 0-4.4 24.8-34.5 30.2l-61.2 114.8c-0.9-0.6-1.3-0.9-1.3-0.9-40.2-14.1-65.5-36.4-81.2-56.9 6.1 3 43.3 19.5 81.2-3.9 41.4-25.6 62.2-63.4 57.5-83.5-4.7-20.1-21-20.1-22.6-29.8-1.6-9.4 26.8-30.5 28.5-31.8l-52 19.2c0 0-1.6-33.7 4.6-57.9 6.2-24.2 20.3-39.6 30.6-1.4q0 0 0-0.1c2-2.7 30.3-42.1 47-35.1 17.2 7.2 0 58.4 0 58.4 0 0 25.5-13.1 32.8-0.7 7.3 12.4-25.2 41.3-25.2 41.3 0 0 35.5 4 34.1 18.1z"/>
						</g>
						<g id="&lt;Group&gt;">
							<path id="&lt;Path&gt;" class="s10" d="m1803.3 2297.8l-9.7 18.2-32.4 60.7c0 0-179.3 55.5-206.2-50 0 0 76.3-71.3 141.5-135.2 0 0 4.6 22.8 24.3 48.5 15.7 20.5 41 42.8 81.2 56.9 0 0 0.4 0.3 1.3 0.9z"/>
						</g>
						<g id="&lt;Group&gt;">
							<path id="&lt;Path&gt;" class="s11" d="m1730.7 2258.3c0 0-65.5 81.6-88.6 98.8-23.1 17.2 65.1 5.6 65.1 5.6l81.1-65.8z"/>
						</g>
						<g id="&lt;Group&gt;">
							<path id="&lt;Path&gt;" class="s2" d="m1799.9 2117c14.7-17.3 39.1-39 63.6-36.4 10.9 1.7 19.5 12.8 17.9 23.7-1.7 14.4-10.1 25.1-19.2 35.3-0.1 0 1.9-11.4 1.9-11.4 3.2 13 3.7 25.8 3.7 39-0.1 1.8-1.6 3.3-3.5 3.3-1.4 0-2.6-1-3.1-2.2-3.2-8.6-6.9-16.8-11.3-24.6-2.4-5.2-8.6-9.7-4.7-15.3 6.2-8.2 15-17.1 16.8-26 0.2-0.7 0-1 0.1-1.3 0.1-0.5-0.2-0.4 0-0.7-0.2-0.1-0.1-0.2-0.3-0.5-0.8-0.5-1.1-1.1-2.1-1.4-9.9-1.7-20.5 4.5-29.6 8.9-8.6 4.4-17.4 9.5-26.2 14.4-2.9 1.7-6.3-2.3-4-4.8z"/>
						</g>
						<g id="&lt;Group&gt;">
							<path id="&lt;Path&gt;" class="s2" d="m1801.9 2307.2q-1.7 0-3.4-0.6c-94.9-33.3-111.4-109.8-112.1-113.1-1.1-5.5 2.5-10.9 8.1-12.1 5.5-1.1 10.9 2.5 12 8 0.6 2.9 15.4 68.5 98.8 97.8 5.4 1.9 8.2 7.8 6.3 13.1-1.5 4.2-5.4 6.9-9.7 6.9z"/>
						</g>
						<g id="&lt;Group&gt;">
							<path id="&lt;Compound Path&gt;" class="s2" d="m1664.8 2401.6c-27 0-54.9-4.1-77.4-16.7-21.8-12.3-36.1-31-42.4-55.6-0.9-3.7 0.2-7.5 2.9-10.1 1.7-1.5 169.4-158.3 218.4-213.8 12.3-51.3 32-111.1 57.4-110.1 18 0.7 26.8 16.9 31.1 31.6 12.4-13.4 29.6-27 44.7-20.6 17.2 7.2 15.6 32 11.2 52 10.7-1.6 21 0.5 26.5 9.9 7.1 12.2-2.7 28.1-13.4 40.3 12.4 4 25.1 11.4 23.8 25.3-1.7 17.3-25.6 24.9-40.7 28-3.8 9.2-13.2 24.4-35.6 30.2l-101.1 189.5c-1.2 2.4-3.4 4.2-6 5-3 0.9-49.6 15.1-99.4 15.1zm-98.3-71.7c5.5 16.4 15.7 28.5 30.9 37.1 50.1 28 137.2 6.5 156.8 1.1l101.2-189.9c1.5-2.8 4.2-4.7 7.3-5.3 21.9-3.9 25.9-20.2 26.3-22 0.8-4.2 4.2-7.5 8.4-8.2 12.2-1.9 25.8-6.9 29.2-10.4-3.4-2.9-14.5-6.3-24.5-7.4-4.1-0.5-7.4-3.2-8.7-7.1-1.2-3.8 0-8 3-10.7 11.2-10.1 21.8-23.5 22.7-28.7-2.6-0.9-11.4 1-18.9 4.8-3.7 1.9-8.2 1.4-11.3-1.4-3.2-2.7-4.4-7-3-11 7.1-21.2 8.8-42.4 5.5-45.8-3.6-1.4-20.1 11.5-34.4 31.8-2.5 3.6-7 5.2-11.2 4-4.2-1.2-7.2-4.9-7.5-9.3-0.6-12.1-5.7-34.6-14.8-35.6-9.1 4.3-26.6 49.1-37.8 96.7-0.4 1.6-1.2 3.1-2.3 4.4-43.7 50.2-188.5 186.3-216.9 212.9z"/>
						</g>
					</g>
					<g id="&lt;Group&gt;">
						<g id="&lt;Group&gt;">
							<path id="&lt;Path&gt;" class="s10" d="m1614.6 2372.6c0 0 116.5-15.5 205.7-15.5 89.1 0 217.6 64.2 217.6 64.2 0 0 210.8 17.6 251.5 40.4 40.8 22.8 46.3 72.6 22.8 108.8-23.5 36.3-762.4 0-762.4 0 0 0-52.7-117.1 64.8-197.9z"/>
						</g>
						<g id="&lt;Group&gt;" style="opacity: .6">
							<path id="&lt;Path&gt;" class="s0" d="m1606.1 2396.3c0 0 116.5-15.4 205.6-15.5 89.1 0 217.7 64.2 217.7 64.2 0 0 210.7 17.7 251.5 40.5 30.2 16.9 41 48.6 35 78.7 19-35.5 11.9-81-26.5-102.5-40.7-22.8-251.5-40.4-251.5-40.4 0 0-128.5-64.2-217.6-64.2-89.2 0-205.7 15.5-205.7 15.5-42.7 29.4-62.9 63.6-71.3 95.3 11.2-24.5 30.6-49.4 62.8-71.6z"/>
						</g>
						<g id="&lt;Group&gt;">
							<path id="&lt;Compound Path&gt;" class="s2" d="m2105.2 2596.9c-48.9 0-109-0.7-183.3-2.5-185.6-4.5-370.8-13.5-372.6-13.6-3.9-0.2-7.3-2.5-8.8-6.1-0.6-1.2-54.8-125.9 68.3-210.6 1.4-0.9 2.9-1.5 4.5-1.7 1.2-0.1 118.2-15.5 206.9-15.6q0.1 0 0.1 0c85.8 0 203.8 56.3 220.4 64.4 29.3 2.5 213.3 18.9 253.7 41.6 20.1 11.2 34.1 29.3 39.5 51.1 5.9 23.9 1.1 50.3-13.1 72.2-5 7.7-13.5 20.8-215.6 20.8zm-548.3-36.3c274.8 13.4 713.8 25.9 747.2 3.6 10.8-17 14.4-37.2 9.9-55.4-4.1-16.4-14.3-29.6-29.6-38.1-31.8-17.9-189.3-34.3-247.4-39.2-1.2-0.1-2.5-0.5-3.7-1-1.2-0.7-127.4-63.2-213-63.2q0 0 0 0c-80.4 0.1-184.6 12.9-201.9 15.1-93.8 66-70 154.8-61.5 178.2zm747.6 3.4q0 0 0 0"/>
						</g>
					</g>
					<g id="&lt;Group&gt;">
						<g id="&lt;Group&gt;">
							<path id="&lt;Path&gt;" class="s7" d="m1953.4 2338.2c-4.1 13.6-44 18.9-44 18.9 0 0-12.9 20.2-31.1 30l-96.4 114-23.8 37.8c0 0-140.2 37.2-223.3 30.9-3.9-0.3-7.8-0.6-11.5-1.1-75.1-8.9-109-46.5-109-46.5l125-54.1c0 0 79.7-41.5 132.7-77.6 1.4-1 2.8-1.9 4.2-2.9l3.4 1.8 4.4 2.4c0 0 73-68.9 96.3-89.2 0 0-10.8-42.5-2.5-54.4 8.3-11.9 30 21.8 30 21.8 0 0 17-58.6 38.7-60.2 21.8-1.5 15.2 40 15.2 40 0 0 31.1-31.5 45.1-27.2 14 4.3 0 53.1 0 53.1 0 0 31.1-8.7 38.3 2.9 7.3 11.6-21.7 38-21.7 38 0 0 22.6 5.2 28.8 14.5 1.4 2.1 2 4.5 1.2 7.1z"/>
						</g>
						<g id="&lt;Group&gt;">
							<path id="&lt;Path&gt;" class="s8" d="m1953.4 2338.2c-4.1 13.6-44 18.9-44 18.9 0 0-12.9 20.2-31.1 30l-96.4 114c-17-11.4-31.4-23-43.5-34.2 8.8-3.5 25.5-13 51.3-38.7 40.7-40.8 62.2-59.4 69.8-67.7 7.6-8.3 20.7-11.1 31.7-21.4 0 0 51.5 4.7 61-8 1.4 2.1 2 4.5 1.2 7.1z"/>
						</g>
						<g id="&lt;Group&gt;">
							<path id="&lt;Path&gt;" class="s10" d="m1781.9 2501.1l-23.8 37.8c0 0-140.2 37.2-223.3 30.9-3.9-0.3-7.8-0.6-11.5-1.1-75.1-8.9-109-46.5-109-46.5l125-54.1c0 0 79.7-41.5 132.7-77.6 4.9-0.7 7.6-1.1 7.6-1.1 0 0 13.4 35.8 58.8 77.5 12.1 11.2 26.5 22.8 43.5 34.2z"/>
						</g>
						<g id="&lt;Group&gt;">
							<path id="&lt;Path&gt;" class="s11" d="m1781.9 2501.1l-23.8 37.8c0 0-140.2 37.2-223.3 30.9-3.9-0.3-7.8-0.6-11.5-1.1-11.3-23.9-20.5-43.9-21-45.1 3.3 0.4 134.1 17 228.4-54.6 0 0 2.5 0 7.7-2.1 12.1 11.2 26.5 22.8 43.5 34.2z"/>
						</g>
						<g id="&lt;Group&gt;">
							<path id="&lt;Path&gt;" class="s2" d="m1781.9 2511.3c-2 0-3.9-0.5-5.7-1.7-82.6-55.3-105.3-114.1-106.2-116.6-2-5.3 0.7-11.2 6-13.2 5.2-2 11.2 0.7 13.2 6 0.2 0.7 21.9 55.5 98.4 106.8 4.7 3.1 6 9.5 2.8 14.2-2 2.9-5.2 4.5-8.5 4.5z"/>
						</g>
						<g id="&lt;Group&gt;">
							<path id="&lt;Compound Path&gt;" class="s2" d="m1555.1 2580.8c-7.3 0-14.4-0.2-21.1-0.7-86.2-6.5-125.7-49.3-127.3-51.1-2.2-2.4-3.1-5.8-2.4-9 0.7-3.2 2.9-5.9 6-7.2l124.5-54c5.7-3 85.4-44.7 135.5-79.6 3.2-2.2 7.3-2.4 10.7-0.6l1.3 0.6c16.2-15.2 64.1-60.1 86.6-80.2-3.7-16.2-8.2-44.2 0.4-56.6 3.1-4.5 7.8-7 13-7q0.1 0 0.3 0c7.5 0.1 15.2 6.1 21.7 13.1 7.9-20.5 22-47.5 41.5-48.9 7.4-0.5 13.7 1.9 18.4 7.1 4.8 5.2 7.1 12.6 8.1 19.9 12-9.2 26.4-17.2 37.5-13.8 16.1 5 15 29.1 10.8 49.8 12.1-1.2 26.6-0.1 33.2 10.5 7.4 11.9-1.8 27.3-11.6 38.9 7.5 3.2 15.4 8 19.3 14.6 2.6 4.6 3.2 9.6 1.7 14.5-4.9 16.4-32.4 23-48 25.5-4.9 6.7-15.9 20.1-30.3 28.5l-94.7 112.1-23.5 37.2c-1.3 2.2-3.5 3.8-6 4.4-5.3 1.4-121.7 32-205.6 32zm-121.6-55.8c16.1 11.9 49.5 30.7 102 34.6 72.9 5.5 193-23.8 216.1-29.6l21.6-34.4q0.4-0.6 0.9-1.1l96.4-114c0.8-1 1.8-1.8 2.9-2.4 15.5-8.4 27.3-26.4 27.4-26.6 1.6-2.5 4.3-4.2 7.2-4.6 14.9-1.9 30.8-7.1 34.9-11-3-3-13-7.3-21.8-9.3-3.7-0.9-6.7-3.7-7.6-7.4-1-3.7 0.2-7.6 3-10.2 9.6-8.7 18.6-20.5 19.5-25.3-3.4-1.8-16-1.1-26.5 1.8-3.5 1-7.4 0-10-2.6-2.6-2.6-3.6-6.5-2.6-10.1 4.6-16 7-34 5.5-40.3-6.2 1.4-21.5 12.4-33.4 24.5-3.1 3.1-7.9 3.9-11.9 1.9-4-2-6.2-6.4-5.5-10.7 1.6-10.1 0.9-23.9-2.5-27.6-0.2-0.3-0.5-0.6-1.8-0.5-7.7 0.5-21.8 25.7-29.6 52.8-1.2 3.9-4.4 6.7-8.4 7.3-3.9 0.6-7.9-1.2-10.1-4.6-4.4-6.8-10.1-13.7-14.1-17.3-0.9 8.4 1.1 25.9 5.2 41.8 0.9 3.8-0.3 7.7-3.2 10.3-22.9 19.9-95.4 88.1-96.1 88.8-3.2 3-8 3.7-11.9 1.6l-2.2-1.2c-52.8 35.9-129.6 75.8-132.9 77.5q-0.3 0.2-0.7 0.3zm105.8-57h0.1z"/>
						</g>
					</g>
					<g id="&lt;Group&gt;">
						<g id="&lt;Group&gt;">
							<g id="&lt;Group&gt;">
								<path id="&lt;Path&gt;" class="s7" d="m1590.1 2032.2c0 0 87.1-17.1 76.8 93.8 0 0-67.5 6.2-76.8-93.8z"/>
							</g>
							<g id="&lt;Group&gt;">
								<path id="&lt;Compound Path&gt;" class="s2" d="m1665.3 2136.3c-13.3 0-76.3-5.3-85.4-103.2-0.5-5.2 3.1-10 8.2-11 1.6-0.3 38.3-7.2 64.7 16.8 19.9 17.9 28.1 47.6 24.3 88-0.5 4.9-4.4 8.8-9.3 9.3-0.1 0-0.9 0.1-2.5 0.1zm-63.8-94.8c8.7 59 40.3 71.3 55.8 73.7 1.2-28.4-4.8-48.9-18.1-61-11.9-10.9-27.7-12.7-37.7-12.7z"/>
							</g>
						</g>
						<g id="&lt;Group&gt;">
							<g id="&lt;Group&gt;">
								<path id="&lt;Path&gt;" class="s7" d="m1368.7 2562.9c-232.3 89.2-361.6 37.1-363.5-67.3 0-2.4 0-4.8 0.1-7.3v-583.5c0 0 24.9-119.9 208.7-135.1 0 0 12.4-32.4 4.1-78.1 0 0 48.7 2.1 62.2 67.4 0 0 31.1-30 38.3-73.6 0 0 50.8 31.1 27 115.1 0 0 208.6 91.1 273.3 294.3 0 0 71.8 1.7 87 96.1 0.3 1.9 0.6 3.9 0.7 5.9 9.7 96-105.1 276.8-337.9 366.1z"/>
							</g>
							<g id="&lt;Group&gt;">
								<path id="&lt;Path&gt;" class="s8" d="m1368.7 2562.9c-232.3 89.2-361.6 37.1-363.5-67.3 0-2.4 0-4.8 0.1-7.3v-64.2c41.2-39 93.6-81.3 93.6-81.3 0 0 136.2 144.1 346.1 109.6 144.2-23.8 225.2-167.7 261.6-255.6 9.7 96-105.1 276.8-337.9 366.1z"/>
							</g>
							<g id="&lt;Group&gt;">
								<path id="&lt;Path&gt;" class="s12" d="m1345.6 1800.5c0 0-32.2 15.5-87.1 40.4-54.9 24.9-145.5 80.6-203.4 193.2 0 0 16.9 57.6 92.5 60.7 0 0-11.2 36.4-80.8 47.7 0 0 44.5 33.2 80.8 43.5 0 0-31.8 33.2-87.1 33.2 0 0 8.7 153 139.8 244.2 0 0-55.8 10.3-77 12.1 0 0-49 9.5-118.1 20.1 0-2.4 0-4.8 0.1-7.3v-583.5c0 0 0.7-3.5 2.8-9.3 10.2-28.3 53.2-113.2 205.9-125.8 0 0 12.4-32.4 4.1-78.1 0 0 0.3 0 0.7 0.1 5.9 0.5 48.9 6.6 61.5 67.3 0 0 31.1-30 38.3-73.6 0 0 0.5 0.4 1.4 1h0.1c8.2 6 46.8 38.8 25.5 114.1z"/>
							</g>
							<g id="&lt;Group&gt;" style="opacity: .3">
								<path id="&lt;Path&gt;" class="s0" d="m1234.3 1780.1c-1.7 6.2-7.1 10.7-13.5 11.1-145.7 10.3-208.1 110.9-208.1 110.9l-4.6-6.6c10.2-28.3 53.2-113.2 205.9-125.8 0 0 12.4-32.4 4.1-78.1 0 0 0.3 0 0.7 0.1 28.7 25.5 21 68.6 15.5 88.4z"/>
							</g>
							<g id="&lt;Group&gt;" style="opacity: .3">
								<path id="&lt;Path&gt;" class="s0" d="m1311.7 1762.1c-28 29.6-31.4-3.1-31.4-3.1 0 0 31.1-30 38.3-73.6 0 0 0.5 0.4 1.4 1h0.1c5.3 19.1 11.4 54.8-8.4 75.7z"/>
							</g>
							<g id="&lt;Group&gt;">
								<g id="&lt;Group&gt;">
									<path id="&lt;Path&gt;" class="s2" d="m1362.6 2199.4c30.2 32.6 32.7 79.3 5.7 104.4-27.1 25.1-73.5 19.1-103.7-13.5-30.2-32.5-32.7-79.2-5.6-104.3 27.1-25.1 73.5-19.1 103.6 13.4z"/>
								</g>
								<g id="&lt;Group&gt;">
									<path id="&lt;Path&gt;" class="s0" d="m1340.6 2205.5c11.4 12.2 12.3 29.9 2.1 39.4-10.3 9.5-27.8 7.2-39.2-5.1-11.4-12.3-12.3-29.9-2.1-39.4 10.2-9.5 27.8-7.2 39.2 5.1z"/>
								</g>
								<g id="&lt;Group&gt;" style="opacity: .3">
									<path id="&lt;Path&gt;" class="s0" d="m1325.8 2267.1c13.4 1.5 23.5 10.3 22.4 19.7-1 9.3-12.8 15.7-26.2 14.2-13.4-1.5-23.4-10.3-22.3-19.7 1-9.3 12.7-15.7 26.1-14.2z"/>
								</g>
								<g id="&lt;Group&gt;">
									<path id="&lt;Path&gt;" class="s2" d="m1577.9 2042.9c23.7 32.1 21.3 74.2-5.5 93.9-26.7 19.8-67.6 9.7-91.3-22.4-23.8-32.2-21.3-74.2 5.4-93.9 26.8-19.8 67.7-9.7 91.4 22.4z"/>
								</g>
								<g id="&lt;Group&gt;">
									<path id="&lt;Path&gt;" class="s0" d="m1557.5 2046.1c9 12.1 8.1 28-2 35.5-10.1 7.4-25.6 3.6-34.5-8.5-9-12.2-8.1-28 2-35.5 10.1-7.5 25.6-3.7 34.5 8.5z"/>
								</g>
								<g id="&lt;Group&gt;" style="opacity: .3">
									<path id="&lt;Path&gt;" class="s0" d="m1538.2 2099.8c11.8 2.6 19.9 11.5 18 19.8-1.9 8.3-13 12.8-24.8 10.1-11.9-2.7-19.9-11.6-18.1-19.9 1.9-8.2 13-12.7 24.9-10z"/>
								</g>
								<g id="&lt;Group&gt;">
									<path id="&lt;Path&gt;" class="s2" d="m1187.2 2186.5c-11-24.9 0.7-56.5 25-69.2 13.5-7.6 30.1-9.3 45-5.2 6.3 1.4 7.3 10.6 1.6 13.4-12.4 6.1-25.5 9.7-36.1 18.7-13.2 10.1-19.7 25.5-26.2 41.4-1.1 4.5-7.5 5.3-9.3 0.9z"/>
								</g>
								<g id="&lt;Group&gt;">
									<path id="&lt;Path&gt;" class="s2" d="m1416.5 2015.9c-8.1-26 7-56.1 32.5-66 14.4-6.1 31-5.8 45.4-0.2 6.1 2.1 6.1 11.4 0.1 13.5-13 4.8-26.5 6.8-38 14.6-14.3 8.6-22.4 23.1-30.7 38.3-1.6 4.3-8 4.3-9.3-0.2z"/>
								</g>
								<g id="&lt;Group&gt;">
									<g id="&lt;Group&gt;">
										<path id="&lt;Path&gt;" class="s0" d="m1424.6 2303.8c0 0 122.4-23.4 156.3-120.8 0 0 72.5 84.5 4.9 149.2-72.5 69.4-161.2-28.4-161.2-28.4z"/>
									</g>
									<g id="&lt;Group&gt;">
										<path id="&lt;Path&gt;" class="s2" d="m1431.1 2279.5c-7 15.8-5.7 30.3-5.8 46.6-0.3 2.9-2.9 5.1-5.8 4.8-1.9-0.2-3.4-1.3-4.2-2.8-4.6-8.5-5.4-18.7-3.1-28.1 2.6-9.3 8.2-18.4 17.4-22.3 1.1-0.5 2.2 0.8 1.5 1.8z"/>
									</g>
									<g id="&lt;Group&gt;">
										<path id="&lt;Path&gt;" class="s2" d="m1608.7 2183.2c-16.8-4.3-30.8-0.6-46.9 1.9-2.9 0.2-5.5-2-5.7-5-0.1-1.8 0.8-3.5 2.1-4.5 7.6-6 17.6-8.5 27.2-7.7 9.6 1 19.5 5.1 24.9 13.5 0.6 1-0.5 2.3-1.6 1.8z"/>
									</g>
									<g id="&lt;Group&gt;">
										<path id="&lt;Path&gt;" class="s2" d="m1473.3 2334c27.2-5.2 54.1-17.1 76-34.4 0.7-0.6 1.6 0.4 1 1-9.5 11.1-20.6 21.1-32.7 29.5-12.6 8.7-25.2 15.8-39.7 21.5-4.8 1.8-10-0.6-11.8-5.3-2.1-5.4 1.5-11.5 7.2-12.3z"/>
									</g>
									<g id="&lt;Group&gt;">
										<path id="&lt;Path&gt;" class="s2" d="m1566.7 2282.3c13.4-14.8 25.3-32.7 30.3-51.7 2.8-9.9 17.6-6.1 15.2 3.9-4.8 11-12.3 20.3-19.9 28.6-1.5 1.9-28.4 28.2-25.6 19.2z"/>
									</g>
									<g id="&lt;Group&gt;">
										<path id="&lt;Compound Path&gt;" class="s2" d="m1414.9 2300.6c1-3.2 4.8-6.6 8.4-6.9 0.4-0.1 1.7-0.2 2.2-0.3 62.1-10.7 129.6-48.9 145.7-113.8 2.2-7.4 12.7-9.4 17.4-3.3 29.1 36.3 48.8 88.2 26.9 132.8-14.6 28.8-41.7 51.9-74.3 57.1-46.2 6.5-88.3-20.8-120-51.2-1-1-2.8-2.8-3.8-3.8-2.5-2.4-3.7-7.4-2.5-10.6zm19.4 6.5c1.2-2.6 0.5-7.2-1.4-9.3-0.7-0.9-0.7-0.8-0.4-0.5 0.8 0.8 2.3 2.4 3.1 3.2 18.2 17.7 40.2 33.4 64.2 41.6 39.3 14.5 79.2-5.8 97.2-42 18.1-36.7-0.2-80.5-23.9-110.4 0 0 17.5-3.3 17.4-3.3-28.8 64.7-92.1 104.3-157.3 125.4-1.3 0.5-4.4 1.4-5.7 1.8 0 0-0.5 0.1-0.5 0.1 0.1 0-0.2 0.1 0.1 0 3.2-0.5 6.6-3.8 7.2-6.6z"/>
									</g>
								</g>
							</g>
							<g id="&lt;Group&gt;">
								<path id="&lt;Path&gt;" class="s2" d="m1123.2 2485.7c-5.2 0-9.7-4-10.2-9.4-0.4-5.6 3.7-10.6 9.4-11 11.8-1 35.1-4.8 52.9-7.9-115.5-93.5-124.6-231.5-125-237.6-0.1-2.8 0.9-5.6 2.8-7.7 1.9-2 4.6-3.2 7.5-3.2 30.4 0 53-10.8 66.3-19.5-32.6-13.8-64.7-37.5-66.2-38.7-3.3-2.4-4.9-6.6-3.9-10.6 1-4 4.3-7.1 8.3-7.7 37.2-6.1 55.9-19.3 64.9-29-67.6-10.6-84.1-64-84.8-66.4-0.7-2.6-0.5-5.3 0.7-7.6 60.5-117.4 156.5-174.3 208.4-197.8 54.1-24.6 86.5-40.2 86.8-40.3 5.1-2.5 11.2-0.4 13.7 4.7 2.5 5.1 0.3 11.2-4.8 13.7-0.3 0.2-32.8 15.9-87.3 40.5-48.8 22.2-138.8 75.4-196.5 184.6 5 11.7 24.7 47.4 81.8 49.8 3.2 0.1 6.2 1.7 8 4.3 1.8 2.6 2.4 5.9 1.4 8.9-0.5 1.6-11 33.7-65.3 49.5 15.7 10.1 38.6 23.2 58.3 28.9 3.5 1 6.2 3.7 7.1 7.1 1 3.5 0 7.2-2.5 9.8-1.3 1.4-31.1 31.9-83.1 35.9 4.8 35.3 28.3 152.3 134.3 226 3.4 2.4 5 6.6 4.1 10.6-0.9 4-4.1 7.2-8.1 7.9-2.3 0.4-56.6 10.4-78.1 12.2q-0.4 0-0.9 0z"/>
							</g>
							<g id="&lt;Group&gt;">
								<path id="&lt;Compound Path&gt;" class="s2" d="m1160.8 2618.5c-49 0-89.4-10.4-118.5-31.2-32.5-23.3-48.8-57.6-47.3-99.4v-583.1q0-1.1 0.3-2.1c1-5.1 27.9-124.5 210.9-142.6 2.8-10.8 7.5-35.5 1.8-66.6-0.5-3.1 0.3-6.2 2.4-8.6 2-2.3 5-3.7 8.1-3.5 17.3 0.7 50.4 13.9 66.3 56.3 8.8-12.1 19.9-31.1 23.7-54 0.6-3.3 2.8-6.2 5.9-7.6 3.1-1.4 6.7-1.2 9.6 0.6 2.3 1.4 53.7 34 33.6 118.1 39.4 19 208.3 109.8 269 290.7 20.3 3.5 76 20.7 89.4 103.7 15.6 96.8-97.8 289-343.6 383.3-79.7 30.6-152 46-211.6 46zm-145.3-712.5v582.3c-1.3 35 12.1 63.3 38.7 82.3 59 42.2 172.3 35.9 310.9-17.2 226.9-87.1 345.5-268.9 330.7-360.9-13.6-84.3-74.7-87.3-77.3-87.4-4.3-0.2-8.1-3-9.4-7.2-62.5-196.3-265.6-287.1-267.6-288-4.7-2.1-7.2-7.3-5.8-12.2 14.2-50 0.2-78.9-11.2-92.9-11.5 36.5-35.9 60.4-37.1 61.6-2.7 2.6-6.6 3.5-10.1 2.4-3.6-1.1-6.3-4-7.1-7.7-7.5-36.5-26.9-50.5-39.9-55.9 3.9 39.7-6.3 66.9-6.8 68.2-1.4 3.7-4.8 6.2-8.7 6.5-166.7 13.8-196.4 114.4-199.3 126.1z"/>
							</g>
						</g>
					</g>
					<g id="&lt;Group&gt;">
						<g id="&lt;Group&gt;">
							<g id="&lt;Group&gt;">
								<path id="&lt;Path&gt;" class="s13" d="m567.1 2572.6c0 0-146.4-779.2 487.9-1028.7v1028.7z"/>
							</g>
							<g id="&lt;Group&gt;" style="opacity: .6">
								<path id="&lt;Path&gt;" class="s0" d="m1055 1584.1v-40.2c-634.3 249.5-487.9 1028.7-487.9 1028.7h28.9c-18.3-135.5-70.5-754.7 459-988.5z"/>
							</g>
							<g id="&lt;Group&gt;">
								<path id="&lt;Compound Path&gt;" class="s2" d="m1055 2585.4h-487.9c-6.1 0-11.4-4.4-12.6-10.4-0.3-2-36.5-199.8 6.1-425.6 25.2-133 72.3-249.7 140.1-346.9 84.9-121.7 202.6-212.7 349.6-270.6 4-1.5 8.4-1 11.9 1.4 3.5 2.4 5.6 6.3 5.6 10.6v1028.7c0 7.1-5.7 12.8-12.8 12.8zm-477-25.6h464.2v-996.9c-248.1 103.8-401.6 302.3-456.2 590.5-36.4 191.9-14.6 363.2-8 406.4z"/>
							</g>
						</g>
						<g id="&lt;Group&gt;">
							<g id="&lt;Group&gt;">
								<path id="&lt;Path&gt;" class="s0" d="m1034.3 2469l-53.7 80.8c0 0-125.9-130.2-241.7-292-46-64.3-90.4-133.6-124.8-201.8-22.4-44.7-14-99.7 23.2-133.1 1.5-1.4 3-2.7 4.6-3.9 39.1 93.4 102.5 192.5 167 280.5 111 151.3 225.4 269.5 225.4 269.5z"/>
							</g>
							<g id="&lt;Group&gt;">
								<path id="&lt;Path&gt;" class="s14" d="m1034.3 2469l-53.7 80.8c0 0-125.9-130.2-241.7-292 0 0 65.2 18.4 70-58.3 111 151.3 225.4 269.5 225.4 269.5z"/>
							</g>
							<g id="&lt;Group&gt;">
								<path id="&lt;Compound Path&gt;" class="s2" d="m980.6 2562.6c-3.4 0-6.8-1.4-9.2-3.9-2.5-2.6-248.5-258.3-368.7-496.9-25.5-50.7-14.8-111.8 26-148.5q2.5-2.2 5-4.3c3.2-2.5 7.3-3.4 11.3-2.5 3.9 1 7.1 3.8 8.7 7.5 104.2 249.1 387 543.1 389.8 546.1 4.2 4.3 4.8 10.9 1.5 16l-53.7 80.8c-2.2 3.2-5.7 5.3-9.5 5.7q-0.6 0-1.2 0zm-343.2-621.6c-25.1 29.4-30.2 72.6-11.8 109.3 103.9 206.4 304.3 426.7 353.3 479l39.1-58.9c-44-46.7-279.3-302.4-380.6-529.4z"/>
							</g>
						</g>
						<g id="&lt;Group&gt;">
							<g id="&lt;Group&gt;">
								<path id="&lt;Path&gt;" class="s0" d="m1052.9 1517.5c26.2 0 47 21.9 45.9 48q-18.7 450.6 0 901.1c1.1 26.1-19.7 48-45.9 48-24.6 0-44.9-19.3-46-43.8q-21.4-454.7 0-909.5c1.1-24.5 21.4-43.8 46-43.8z"/>
							</g>
							<g id="&lt;Group&gt;">
								<g id="&lt;Group&gt;">
									<path id="&lt;Path&gt;" class="s14" d="m1089.5 2007.2c-5.8 18.7-23.1 32.4-43.9 32.4-24.5 0-44.8-19.3-46-43.8q-1.6-34.6-3-69.2c-1.6 181.4 1.7 362.8 10.3 544.2 1.1 24.5 21.4 43.8 46 43.8 26.2 0 47-21.9 45.9-48q-9.5-229.7-9.3-459.4z"/>
								</g>
							</g>
							<g id="&lt;Group&gt;">
								<path id="&lt;Compound Path&gt;" class="s2" d="m1052.9 2527.4c-31.5 0-57.3-24.6-58.8-56-14.2-302.2-14.2-608.5 0-910.7 1.5-31.4 27.3-56 58.8-56 16.1 0 31.2 6.4 42.4 18.1 11.2 11.7 17 27.1 16.3 43.3-12.4 298.6-12.4 601.3 0 899.9 0.7 16.2-5.1 31.6-16.3 43.3-11.2 11.7-26.3 18.1-42.4 18.1zm0-997.1c-17.8 0-32.4 13.9-33.2 31.6-14.2 301.4-14.2 606.9 0 908.3 0.8 17.7 15.4 31.6 33.2 31.6 9.1 0 17.6-3.7 23.9-10.2 6.3-6.6 9.6-15.3 9.2-24.5-12.4-299.3-12.4-602.8 0-902.1 0.4-9.2-2.9-17.9-9.2-24.5-6.3-6.5-14.8-10.2-23.9-10.2z"/>
							</g>
						</g>
						<g id="&lt;Group&gt;">
							<g id="&lt;Group&gt;">
								<path id="&lt;Path&gt;" class="s0" d="m1147.6 2538.1c0 51.1-41.4 92.5-92.6 92.5-51.1 0-92.6-41.4-92.6-92.5 0-51.2 41.5-92.6 92.6-92.6 51.2 0 92.6 41.4 92.6 92.6z"/>
							</g>
							<g id="&lt;Group&gt;">
								<path id="&lt;Path&gt;" class="s14" d="m1109.4 2538.1c0 30-24.4 54.3-54.4 54.3-30 0-54.3-24.3-54.3-54.3 0-30 24.3-54.4 54.3-54.4 30 0 54.4 24.4 54.4 54.4z"/>
							</g>
							<g id="&lt;Group&gt;">
								<path id="&lt;Compound Path&gt;" class="s2" d="m1055 2643.5c-58.1 0-105.4-47.3-105.4-105.4 0-58.2 47.3-105.4 105.4-105.4 58.1 0 105.4 47.2 105.4 105.4 0 58.1-47.3 105.4-105.4 105.4zm0-185.2c-44 0-79.7 35.8-79.7 79.8 0 43.9 35.7 79.7 79.7 79.7 44 0 79.8-35.8 79.8-79.7 0-44-35.8-79.8-79.8-79.8z"/>
							</g>
						</g>
						<g id="&lt;Group&gt;">
							<g id="&lt;Group&gt;">
								<path id="&lt;Path&gt;" class="s15" d="m2426.9 2590.6c-0.6 21.6-2.4 42-5.1 61.2-6.8 48.9-19.2 89.8-32.7 122.4-25.1 60.6-84.4 99.7-149.9 99.7h-1495.1c-74.2 0-139.6-50.2-157.5-122.3-9.4-37.9-14.3-72.8-16.9-100.4-3.4-36.9-2.5-60.6-2.5-60.6z"/>
							</g>
							<g id="&lt;Group&gt;">
								<path id="&lt;Path&gt;" class="s16" d="m2422 2650.3q0.7-5.4 1.4-10.9 0.2-1.9 0.4-3.7 0.6-5.4 1-10.8 0.2-2 0.4-3.9 0.5-5.9 0.9-11.9 0.1-1.5 0.2-3 0.4-7.7 0.6-15.5h-81.3q0 0 0 0h-1778.4c0 0-0.9 23.7 2.5 60.6 4.3 1.9 9.1 2.9 14.1 2.9h1691.7c28.9 0 49 29.3 37.9 56.1q-0.1 0.2-0.2 0.5c-25.1 60.5-84.4 99.6-149.9 99.6h-1495.1c-21.7 0-42.6-4.3-61.8-12.2 29.1 46.3 80.8 75.8 137.7 75.8h1495.1c65.4 0 124.8-39.2 149.9-99.6 13.6-32.8 25.9-73.6 32.7-122.5q0 0 0 0 0.1-0.8 0.2-1.5z"/>
							</g>
							<g id="&lt;Group&gt;">
								<path id="&lt;Compound Path&gt;" class="s2" d="m2239.2 2886.7h-1495.1c-80.8 0-150.7-54.3-169.9-132-22.3-89.7-19.9-161.6-19.8-164.6 0.3-6.9 5.9-12.3 12.8-12.3h1859.7c3.5 0 6.8 1.4 9.2 3.9 2.5 2.4 3.8 5.8 3.6 9.3-2 67.7-15.1 131.1-38.8 188.2-27 65.3-90.5 107.5-161.7 107.5zm-1659.2-283.3c0.3 24 3 80.3 19 145.2 16.4 66.2 76.1 112.4 145.1 112.4h1495.1c60.8 0 115-35.9 138.1-91.6 20.9-50.6 33.1-106.3 36.3-166z"/>
							</g>
						</g>
						<g id="&lt;Group&gt;">
							<g id="&lt;Group&gt;">
								<path id="&lt;Path&gt;" class="s15" d="m1058.7 2914.5l141.4 121h675.8v180.1h-673l-199-276.1z"/>
							</g>
							<g id="&lt;Group&gt;">
								<path id="&lt;Path&gt;" class="s16" d="m1866.4 3035.5v116.9h-600.8c-45.4 0-87.9-21.8-114.4-58.6l-120.2-166.7-27.1 12.4 199 276.1h673v-180.1z"/>
							</g>
							<g id="&lt;Group&gt;">
								<path id="&lt;Compound Path&gt;" class="s2" d="m1875.9 3228.4h-673c-4.1 0-8-1.9-10.4-5.3l-199-276.1c-2.2-3.1-3-7.1-2-10.8 1-3.7 3.6-6.8 7.1-8.4l54.8-24.9c4.5-2.1 9.9-1.4 13.7 1.9l137.8 117.9h671c7 0 12.8 5.8 12.8 12.8v180.1c0 7.1-5.8 12.8-12.8 12.8zm-666.4-25.6h653.6v-154.5h-663c-3 0-6-1-8.3-3l-135.2-115.7-33.2 15.1z"/>
							</g>
						</g>
						<g id="&lt;Group&gt;">
							<g id="&lt;Group&gt;">
								<path id="&lt;Path&gt;" class="s0" d="m2409.2 2618.2h-1825.4c-19.8 0-35.9-16.1-35.9-35.9v-19.4c0-19.8 16.1-35.9 35.9-35.9h1825.4c19.9 0 36 16.1 36 35.9v19.4c0 19.8-16.1 35.9-36 35.9z"/>
							</g>
							<g id="&lt;Group&gt;">
								<path id="&lt;Path&gt;" class="s14" d="m2409.2 2572.6h-1825.4c-15.2 0-28.2-9.5-33.4-22.8-1.6 4.1-2.5 8.5-2.5 13.1v19.4c0 19.8 16.1 35.9 35.9 35.9h1825.4c19.9 0 36-16.1 36-35.9v-19.4c0-4.6-0.9-9-2.5-13.1-5.3 13.3-18.3 22.8-33.5 22.8z"/>
							</g>
							<g id="&lt;Group&gt;">
								<path id="&lt;Compound Path&gt;" class="s2" d="m2409.2 2631h-1825.4c-26.9 0-48.7-21.8-48.7-48.7v-19.4c0-26.8 21.8-48.7 48.7-48.7h1825.4c26.9 0 48.8 21.9 48.8 48.7v19.4c0 26.9-21.9 48.7-48.8 48.7zm-1825.4-91.2c-12.7 0-23.1 10.4-23.1 23.1v19.4c0 12.7 10.4 23.1 23.1 23.1h1825.4c12.8 0 23.2-10.4 23.2-23.1v-19.4c0-12.7-10.4-23.1-23.2-23.1z"/>
							</g>
						</g>
						<g id="&lt;Group&gt;">
							<g id="&lt;Group&gt;">
								<path id="&lt;Path&gt;" class="s3" d="m1161.4 3280.1c0 92.4-74.8 167.2-167.2 167.2-92.3 0-167.2-74.8-167.2-167.2 0-92.3 74.9-167.2 167.2-167.2 92.4 0 167.2 74.9 167.2 167.2z"/>
							</g>
							<g id="&lt;Group&gt;">
								<path id="&lt;Path&gt;" class="s4" d="m1144.5 3206.7c1.5 9.2 2.4 18.8 2.4 28.5 0 92.4-74.8 167.2-167.2 167.2-66 0-123-38.2-150.2-93.7 13.6 78.7 82.1 138.6 164.7 138.6 92.4 0 167.2-74.8 167.2-167.2 0-26.3-6.1-51.3-16.9-73.4z"/>
							</g>
							<g id="&lt;Group&gt;" style="opacity: .3">
								<path id="&lt;Path&gt;" class="s0" d="m838 3304c0-92.4 74.9-167.2 167.2-167.2 62.8 0 117.5 34.6 146.1 85.8-23.5-64-85-109.7-157.1-109.7-92.3 0-167.2 74.9-167.2 167.2 0 29.6 7.7 57.3 21.2 81.4-6.6-17.9-10.2-37.3-10.2-57.5z"/>
							</g>
							<g id="&lt;Group&gt;">
								<g id="&lt;Group&gt;">
									<path id="&lt;Path&gt;" class="s9" d="m1085.4 3280.1c0 50.4-40.8 91.2-91.2 91.2-50.3 0-91.2-40.8-91.2-91.2 0-50.3 40.9-91.2 91.2-91.2 50.4 0 91.2 40.9 91.2 91.2z"/>
								</g>
								<g id="&lt;Group&gt;">
									<path id="&lt;Path&gt;" class="s2" d="m1058.7 3280.1c0 35.6-28.9 64.5-64.5 64.5-35.6 0-64.5-28.9-64.5-64.5 0-35.6 28.9-64.5 64.5-64.5 35.6 0 64.5 28.9 64.5 64.5z"/>
								</g>
								<g id="&lt;Group&gt;">
									<path id="&lt;Compound Path&gt;" class="s2" d="m994.2 3384.1c-57.3 0-104-46.6-104-104 0-57.3 46.7-104 104-104 57.4 0 104.1 46.7 104.1 104 0 57.4-46.7 104-104.1 104zm0-182.4c-43.2 0-78.4 35.2-78.4 78.4 0 43.3 35.2 78.4 78.4 78.4 43.3 0 78.4-35.1 78.4-78.4 0-43.2-35.1-78.4-78.4-78.4z"/>
								</g>
							</g>
							<g id="&lt;Group&gt;">
								<path id="&lt;Compound Path&gt;" class="s2" d="m994.2 3460.1c-99.2 0-180-80.7-180-180 0-99.2 80.8-180 180-180 99.3 0 180.1 80.8 180.1 180 0 99.3-80.8 180-180.1 180zm0-334.4c-85.1 0-154.4 69.3-154.4 154.4 0 85.2 69.3 154.4 154.4 154.4 85.2 0 154.4-69.2 154.4-154.4 0-85.1-69.2-154.4-154.4-154.4z"/>
							</g>
						</g>
						<g id="&lt;Group&gt;">
							<g id="&lt;Group&gt;">
								<path id="&lt;Path&gt;" class="s3" d="m2223.1 3204.8c0 134-108.6 242.5-242.5 242.5-134 0-242.6-108.5-242.6-242.5 0-133.9 108.6-242.5 242.6-242.5 133.9 0 242.5 108.6 242.5 242.5z"/>
							</g>
							<g id="&lt;Group&gt;">
								<path id="&lt;Path&gt;" class="s4" d="m2162.9 3045c18.6 33.2 29.3 71.3 29.3 112 0 126.6-102.7 229.3-229.3 229.3-111.3 0-204-79.4-224.8-184.5 0 1-0.1 2-0.1 3 0 134 108.6 242.5 242.6 242.5 133.9 0 242.5-108.5 242.5-242.5 0-61.2-22.8-117.1-60.2-159.8z"/>
							</g>
							<g id="&lt;Group&gt;" style="opacity: .3">
								<path id="&lt;Path&gt;" class="s0" d="m1749.5 3232c0-134 108.6-242.5 242.6-242.5 95.1 0 177.4 54.8 217.1 134.5-33.3-94.2-123-161.7-228.6-161.7-134 0-242.6 108.6-242.6 242.5 0 38.8 9.2 75.5 25.4 108-8.9-25.3-13.9-52.5-13.9-80.8z"/>
							</g>
							<g id="&lt;Group&gt;">
								<g id="&lt;Group&gt;">
									<path id="&lt;Path&gt;" class="s9" d="m2112.8 3204.8c0 73.1-59.2 132.3-132.2 132.3-73.1 0-132.3-59.2-132.3-132.3 0-73 59.2-132.3 132.3-132.3 73 0 132.2 59.3 132.2 132.3z"/>
								</g>
								<g id="&lt;Group&gt;">
									<path id="&lt;Path&gt;" class="s2" d="m2074.1 3204.8c0 51.7-41.9 93.6-93.5 93.6-51.7 0-93.6-41.9-93.6-93.6 0-51.6 41.9-93.5 93.6-93.5 51.6 0 93.5 41.9 93.5 93.5z"/>
								</g>
								<g id="&lt;Group&gt;">
									<path id="&lt;Compound Path&gt;" class="s2" d="m1980.6 3349.9c-80.1 0-145.1-65.1-145.1-145.1 0-80 65-145.1 145.1-145.1 80 0 145 65.1 145 145.1 0 80-65 145.1-145 145.1zm0-264.6c-65.9 0-119.5 53.6-119.5 119.5 0 65.9 53.6 119.5 119.5 119.5 65.8 0 119.4-53.6 119.4-119.5 0-65.9-53.6-119.5-119.4-119.5z"/>
								</g>
							</g>
							<g id="&lt;Group&gt;">
								<path id="&lt;Compound Path&gt;" class="s2" d="m1980.6 3460.1c-140.8 0-255.4-114.5-255.4-255.3 0-140.8 114.6-255.3 255.4-255.3 140.7 0 255.3 114.5 255.3 255.3 0 140.8-114.6 255.3-255.3 255.3zm0-485c-126.7 0-229.8 103.1-229.8 229.7 0 126.7 103.1 229.7 229.8 229.7 126.6 0 229.7-103 229.7-229.7 0-126.6-103.1-229.7-229.7-229.7z"/>
							</g>
						</g>
						<g id="&lt;Group&gt;">
							<g id="&lt;Group&gt;">
								<path id="&lt;Path&gt;" class="s9" d="m1957.5 3236.6l-493.1-405.3 58.8-71 492.9 405.1c12.8 10.5 14.7 29.5 4.1 42.3l-20.6 24.8c-10.5 12.8-29.4 14.6-42.1 4.1z"/>
							</g>
							<g id="&lt;Group&gt;">
								<path id="&lt;Path&gt;" class="s17" d="m1982.3 3208.5l-493-405.2 34.9-42.2-1-0.8-58.8 71 493.1 405.3c12.7 10.5 31.6 8.7 42.1-4.1l18.7-22.5c-10.8 7.3-25.4 7.2-36-1.5z"/>
							</g>
							<g id="&lt;Group&gt;">
								<path id="&lt;Compound Path&gt;" class="s2" d="m1976.5 3256.2c-9.6 0-19.2-3.2-27.2-9.7l-493.1-405.3c-2.6-2.1-4.2-5.3-4.6-8.7-0.3-3.3 0.7-6.7 2.9-9.3l58.8-71.1c4.5-5.4 12.6-6.2 18-1.7l492.9 405.1c8.9 7.3 14.4 17.6 15.5 29 1.1 11.4-2.4 22.5-9.7 31.3l-20.5 24.9c-8.5 10.2-20.7 15.5-33 15.5zm-10.9-29.5c7.3 6 18.1 4.9 24.1-2.3l20.6-24.9c2.9-3.5 4.3-8 3.9-12.6-0.5-4.6-2.7-8.7-6.2-11.6l-483.1-397-42.5 51.3z"/>
							</g>
						</g>
						<g id="&lt;Group&gt;">
							<g id="&lt;Group&gt;">
								<path id="&lt;Path&gt;" class="s9" d="m1005.9 3293.3h-28.9c-16 0-29.1-13-29.1-29.1v-203.8c0-16.2 9-31.1 23.4-38.6l1411.4-738.8c14.3-7.4 31.9-1.9 39.3 12.3l13.4 25.6c7.5 14.2 2 31.8-12.3 39.3l-1372.5 718.4c-9.6 5-15.6 15-15.6 25.8v159.8c0 16.1-13 29.1-29.1 29.1z"/>
							</g>
							<g id="&lt;Group&gt;">
								<path id="&lt;Path&gt;" class="s17" d="m2435.4 2320.9l-13.4-25.6c-5.9-11.3-18.2-17.1-30.2-15.3l7.7 14.6c7.4 14.3 1.9 31.9-12.3 39.4l-1372.5 718.4c-9.6 5-15.6 14.9-15.6 25.8v159.7c0 16.1-13 29.2-29.1 29.2h-21.9c1.4 14.7 13.8 26.2 28.9 26.2h28.9c16.1 0 29.1-13 29.1-29.1v-159.8c0-10.8 6-20.8 15.6-25.8l1372.5-718.4c14.3-7.5 19.8-25.1 12.3-39.3z"/>
							</g>
							<g id="&lt;Group&gt;" style="opacity: .6">
								<path id="&lt;Path&gt;" class="s0" d="m961.8 3284.9v-203.8c0-16.2 9-31 23.4-38.5l1411.4-738.9c10.4-5.4 22.6-3.9 31.3 2.8l-5.9-11.2c-7.4-14.2-25-19.7-39.3-12.3l-1411.4 738.8c-14.4 7.5-23.4 22.4-23.4 38.6v203.8c0 10.6 5.7 19.9 14.3 25-0.2-1.4-0.4-2.8-0.4-4.3z"/>
							</g>
							<g id="&lt;Group&gt;">
								<path id="&lt;Compound Path&gt;" class="s2" d="m1005.9 3306.1h-28.9c-23.1 0-41.9-18.8-41.9-41.9v-203.8c0-21 11.6-40.2 30.2-49.9l1411.5-738.8c20.5-10.8 45.9-2.8 56.6 17.7l13.4 25.5c5.2 10 6.2 21.3 2.8 32-3.3 10.7-10.6 19.4-20.5 24.6l-1372.5 718.4c-5.4 2.9-8.8 8.4-8.8 14.5v159.8c0 23.1-18.8 41.9-41.9 41.9zm1390.3-1013.6c-2.6 0-5.2 0.6-7.5 1.9l-1411.5 738.8c-10.2 5.3-16.5 15.7-16.5 27.2v203.8c0 9 7.3 16.3 16.3 16.3h28.9c9 0 16.3-7.3 16.3-16.3v-159.8c0-15.7 8.6-29.9 22.5-37.2l1372.5-718.4c3.8-2 6.7-5.4 8-9.5 1.3-4.2 0.9-8.6-1.1-12.5l-13.4-25.5c-2-3.9-5.4-6.8-9.6-8.1q-2.4-0.7-4.9-0.7z"/>
							</g>
						</g>
						<g id="&lt;Group&gt;">
							<g id="&lt;Group&gt;">
								<path id="&lt;Path&gt;" class="s3" d="m1405.7 2907.4l79.3-41.5 89.6 73.6 98.8-70.5-76-63.5 31.1-15.2-72.5-89.9-238.6 124.1z"/>
							</g>
							<g id="&lt;Group&gt;">
								<path id="&lt;Path&gt;" class="s4" d="m1616.8 2775.8l-15.8-19.6c-4.5-5.6-12.4-7.3-18.8-4l-202.3 102.8c-9.5 4.8-11.3 17.6-3.6 24.8l21.4 20.1c4.8 4.5 11.9 5.4 17.6 2.4l59.2-31.1c5.3-2.8 11.9-2.2 16.6 1.6l74.5 59.5c5.3 4.3 12.9 4.5 18.4 0.5l23.6-16.8c8-5.7 8.6-17.4 1.3-23.9l-48.2-42.8c-8-7.1-6.5-20 3-25l48.3-25.4c8.6-4.5 10.9-15.6 4.8-23.1z"/>
							</g>
							<g id="&lt;Group&gt;" style="opacity: .6">
								<path id="&lt;Path&gt;" class="s0" d="m1337.2 2843.1l235.4-122-16.6-20.7-238.6 124.1z"/>
							</g>
							<g id="&lt;Group&gt;">
								<path id="&lt;Compound Path&gt;" class="s2" d="m1574.6 2952.3c-2.9 0-5.7-1-8.1-2.9l-83.1-68.2-71.8 37.5c-4.8 2.6-10.7 1.7-14.7-2l-88.3-82.9c-3-2.8-4.5-7-3.9-11.1 0.6-4.1 3.1-7.7 6.8-9.6l238.6-124c5.4-2.8 12-1.5 15.8 3.3l72.6 89.8c2.4 3 3.4 7 2.5 10.8-0.8 3.8-3.4 7-6.9 8.8l-13.3 6.5 60.8 50.9c3.1 2.5 4.8 6.3 4.6 10.3-0.1 4-2.1 7.6-5.3 9.9l-98.8 70.5c-2.3 1.6-4.9 2.4-7.5 2.4zm-89.6-99.2c2.9 0 5.8 1 8.1 2.9l82.1 67.4 77.3-55.2-63.3-52.9c-3.3-2.8-5-7.1-4.5-11.4 0.5-4.3 3.2-8.1 7.1-10l16.7-8.1-55.9-69.2-213.3 110.9 68.5 64.3 71.2-37.2c1.9-1 3.9-1.5 6-1.5z"/>
							</g>
						</g>
					</g>
				</g>
				<g id="&lt;Group&gt;">
					<g id="&lt;Group&gt;">
						<g id="&lt;Group&gt;">
							<path id="&lt;Path&gt;" class="s7" d="m3012.2 2243q-4 7.5-8.1 14.6c-60.3 107.5-119.3 150.9-233.5 141.9-119.2-9.3-243.2-58.4-243.2-58.4-8.3 9-52.5 15.9-80.5-2-28.1-18-41.1-18.7-41.1-18.7-56.7 55.3-86 12.8-86 12.8-5.2-0.6-9.6-2.1-13.3-4.2 0 0 0 0-0.1 0-3.4-1.9-6.3-4.2-8.8-6.8-0.1-0.1-0.1-0.1-0.1-0.1-10.6-11.4-12.6-27.3-12.6-27.3 0 0-20.1 0.4-28.1-18-3.7-8.3-5-20.3-0.9-37.9 13.1-56.7 85.7-82.9 137.5-75.3 51.8 7.5 153.4 49.4 153.4 49.4 83.9-23.9 187-56.5 187-56.5 4.9-6.8 12-17.8 16.6-25.2 2.8-4.4 4.7-7.5 4.7-7.5 94.8 12.1 157.1 38.9 196.6 64 45.1 28.7 60.5 55.2 60.5 55.2z"/>
						</g>
						<g id="&lt;Group&gt;">
							<path id="&lt;Path&gt;" class="s8" d="m2283.1 2281.8c5.2 22.2 10.3 34 14.4 40.3-10.6-11.4-12.6-27.3-12.6-27.3 0 0-20.1 0.4-28.1-18 0.2-3.1 5.1-63.1 65.3-76.9-2.7 1.7-50.4 32.6-39 81.9z"/>
						</g>
						<g id="&lt;Group&gt;">
							<path id="&lt;Path&gt;" class="s8" d="m3004.1 2257.6c-60.3 107.5-119.3 150.9-233.5 141.9-119.2-9.3-243.2-58.4-243.2-58.4-8.3 9-52.5 15.9-80.5-2-28.1-18-41.1-18.7-41.1-18.7-56.7 55.3-86 12.8-86 12.8-5.2-0.6-9.6-2.1-13.3-4.2 0 0 0 0-0.1 0-1.3-2.4-46.2-83.9 63.5-108.4 0 0-41.5 66.7-16.9 85 24.5 18.3 38.7-30.1 67.7-17.7 29 12.5 70.4 42.5 114 14.5 0 0 191.4 38 282.6 30.8 91.2-7.2 120.2-125 120.2-125 22.6 14.1 45.3 30.5 66.6 49.4z"/>
						</g>
						<g id="&lt;Group&gt;">
							<path id="&lt;Path&gt;" class="s2" d="m2307.3 2336.3c-8.3-54.2 14.6-109.3 73.6-117.3 1.9-0.3 2.6 2.6 0.8 3.1-22 6.8-41.9 21.7-49.5 43.5-7.6 20.3-6.3 43.9 0 64.4 5.6 17.9-21.2 24.7-24.9 6.3z"/>
						</g>
						<g id="&lt;Group&gt;">
							<path id="&lt;Path&gt;" class="s2" d="m2272.5 2297.8c-5.8-35.3 5.7-76 36.8-96.1 9.4-6.7 20.6-10.3 31.6-12.7 2.1-0.6 3.5 2.4 1.6 3.6-17.6 10.1-34.7 23.2-42.2 42.7-7.1 17.6-7.5 38.2-2.9 56.6 4.6 17.3-21.2 23.5-24.9 5.9z"/>
						</g>
						<g id="&lt;Group&gt;">
							<path id="&lt;Compound Path&gt;" class="s2" d="m2797.6 2413.4q-13.4 0-28-1.1c-105.9-8.3-213.6-46.7-240.6-56.9-20 10.1-62.1 11.7-89-5.5-14.9-9.6-25-13.7-30.4-15.5-21.9 19.8-43.1 28.9-63.2 27-16.9-1.7-28-10.7-33.4-16.4-22.5-4.9-34-23.9-38.6-38.7-7.1-1.8-16.3-5.8-23.5-14.7-10.5-13-13-31.7-7.5-55.6 14.4-62.1 90.2-94.2 151.9-85.1 47.3 6.9 132.3 40.5 152.2 48.5 72.5-20.6 158.6-47.6 178.3-53.8 7.6-11.1 18.3-28.3 18.4-28.5 2.7-4.3 7.6-6.6 12.5-6 207.1 26.4 264.2 121.5 266.5 125.5 2.2 3.9 2.3 8.6 0.2 12.5-55.2 103.2-111.4 164.3-225.8 164.3zm-270.4-85.1c1.6 0 3.3 0.3 4.9 0.9 1.3 0.5 123.7 48.5 239.5 57.6 104.9 8.2 162.6-28 225.5-142.9-15.2-19.3-76.8-84.1-235.5-106.3-4.7 7.5-12.1 19.1-17.3 26.3-1.6 2.3-3.9 4-6.6 4.8-1 0.3-104.2 33-187.4 56.6-2.8 0.8-5.7 0.6-8.4-0.5-1-0.4-100.7-41.3-150.4-48.6-43.6-6.4-111.5 15.5-123.1 65.6-3.6 15.5-2.8 27.1 2.3 33.5 5.1 6.6 14.1 6.7 14.2 6.7 6.4 0.1 11.9 4.9 12.7 11.2 0.2 1 3.7 25 23.6 27.3 3.7 0.4 7 2.4 9.1 5.4 0.2 0.2 6.7 9 19 10 13.4 1.1 29.9-7.4 47.6-24.7 2.5-2.5 6-3.8 9.6-3.6 2.7 0.2 17.9 1.8 47.3 20.7 22.5 14.4 58.2 8.9 64.5 3.9 2.4-2.6 5.6-3.9 8.9-3.9zm206.7-171.8z"/>
						</g>
					</g>
					<g id="&lt;Group&gt;">
						<g id="&lt;Group&gt;">
							<path id="&lt;Path&gt;" class="s5" d="m3108.5 2043.3c-3.1 16.1-6.9 31.6-11.1 46.3v0.1c-7.6 27-16.6 51.7-25.9 73.4-27.5 65.1-56.9 104.1-56.9 104.1q-5.2-4.9-10.5-9.6c-21.3-18.9-44-35.3-66.6-49.4-83.5-51.7-167.4-72.5-187.1-76.9-2.9-0.6-4.4-0.9-4.4-0.9 50.8-102.3 65.4-218.4 65.4-218.4 0 0 40.1-26.2 153.4 0 50.1 11.7 84 38.7 106.2 65.2 28.1 33.5 37.5 66.1 37.5 66.1z"/>
						</g>
						<g id="&lt;Group&gt;">
							<path id="&lt;Path&gt;" class="s6" d="m3097.4 2089.6v0.1c-9 20.2-17.5 45.7-25.9 73.4-27.5 65.1-56.9 104.1-56.9 104.1q-5.2-4.9-10.5-9.6c-21.3-18.9-44-35.3-66.6-49.4 0 0 5.4-7.5 14.2-20.4 27.9-40.8 89.6-135 119.3-210.6 5.4-13.7 9.8-26.8 12.6-38.9 0 0 50.5 69.5 13.8 151.3z"/>
						</g>
						<g id="&lt;Group&gt;">
							<path id="&lt;Path&gt;" class="s2" d="m2815.9 1912.6c-3.5 77.4-24.3 154-58.4 223.5 0 0-9-18.3-9-18.3 50.9 11.3 99.7 29.3 146.4 52.3 46.4 22.7 90.6 52.5 128.5 87.8 0 0-19.1 1.6-19.1 1.6 22.2-32.3 41.6-68.1 57.9-103.9 16.9-36.7 29.5-74.7 43.2-112.9 0.6-1.6 2.5-2.5 4.1-1.9 1.4 0.5 2.2 1.8 2.1 3.1-1.4 20.6-4.3 41.3-9.4 61.3-12.7 50.3-33 98.8-59.7 143.3-5.6 8.9-11 17.6-17.7 26.4-4.3 5.7-12.4 6.8-18 2.5-5.4-4.6-16.7-14.8-21.8-19.3-31.1-25.3-65.5-47.5-101.5-65.1-27.6-13.7-56.9-25.6-86.3-35.3-17.5-5.6-36-11-53.6-14.7-7-1.5-11.5-8.4-10-15.4 23.8-52 43.5-105.9 58.5-161.3 5.2-18.2 10.1-36.6 14.9-54.9 1.4-5 9-4.1 8.9 1.2z"/>
						</g>
					</g>
				</g>
				<g id="&lt;Group&gt;">
					<g id="&lt;Group&gt;">
						<g id="&lt;Group&gt;">
							<path id="&lt;Path&gt;" class="s7" d="m2811.4 1657.8c1.4 53.9-56.6 186.6-171.3 204.5-69.3 10.9-103.8-19.6-120.2-45.5q-0.1 0-0.1 0c-10.8-16.9-13.8-31.9-13.8-31.9 0 0 137-81.6 227.5-118.9 44.3-18.3 77.5-25.9 77.9-8.2z"/>
						</g>
						<g id="&lt;Group&gt;">
							<path id="&lt;Path&gt;" class="s8" d="m2811.4 1657.8c1.4 53.9-56.6 186.6-171.3 204.5-69.3 10.9-103.8-19.6-120.2-45.5 2.2 1.6 146.5 103.3 201-106.5q6-23.3 12.6-44.3c44.3-18.3 77.5-25.9 77.9-8.2z"/>
						</g>
						<g id="&lt;Group&gt;">
							<path id="&lt;Compound Path&gt;" class="s2" d="m2612.3 1877.4c-99.4 0-118.6-88.9-118.8-89.9-1.1-5.4 1.3-10.8 6-13.6 0.6-0.4 66.7-39.7 136.7-75.9 129.4-67 162-67.7 176.8-59.5 6.9 3.8 11 10.8 11.2 19 1.5 56.3-58.8 198.1-182.2 217.5-10.6 1.6-20.5 2.4-29.7 2.4zm-91.2-86.5c7.6 20.9 34.8 71.6 117 58.8 105.2-16.5 159.9-139.3 160.5-189.1-7.6-0.8-39.3 2.4-152.4 61.1-54 28-105.3 57.6-125.1 69.2z"/>
						</g>
					</g>
					<g id="&lt;Group&gt;">
						<g id="&lt;Group&gt;">
							<g id="&lt;Group&gt;">
								<path id="&lt;Path&gt;" class="s7" d="m2061 1479.5c0 0-48.3 34.6-23.4 116.3 22.6 74.5 96.7 99.3 142.3 57.9z"/>
							</g>
							<g id="&lt;Group&gt;">
								<path id="&lt;Compound Path&gt;" class="s2" d="m2129 1686.5c-8.1 0-16.4-1.1-24.6-3.4-36.7-10.1-66.3-41.3-79.1-83.5-27.2-89.6 26-128.9 28.3-130.5 2.8-2 6.3-2.8 9.7-2.2 3.4 0.6 6.4 2.6 8.3 5.4l118.9 174.1c3.6 5.3 2.7 12.4-2 16.7-16.9 15.4-37.7 23.4-59.5 23.4zm-69.7-186.9c-10.6 13.9-24.4 43.4-9.5 92.5 10.3 33.8 33.2 58.5 61.4 66.3 18 5 36.2 2.2 51.3-7.5z"/>
							</g>
						</g>
						<g id="&lt;Group&gt;">
							<g id="&lt;Group&gt;">
								<path id="&lt;Path&gt;" class="s12" d="m1886.7 1153.6c0 0 5.9 309.3 264.2 390.3l-162-429.5z"/>
							</g>
							<g id="&lt;Group&gt;">
								<path id="&lt;Compound Path&gt;" class="s2" d="m2150.9 1556.7q-1.9 0-3.8-0.6c-109.5-34.3-191.5-114.9-237.1-233.1-34.2-88.5-36-165.9-36.1-169.1-0.1-5.4 3.2-10.3 8.2-12.2l102.2-39.3c3.1-1.2 6.7-1.1 9.8 0.3 3.1 1.4 5.5 4 6.7 7.2l162.1 429.4c1.7 4.6 0.7 9.8-2.7 13.4-2.4 2.6-5.8 4-9.3 4zm-250.9-394.4c1.5 22.4 8 84.6 34.2 152.2 39.7 102.3 105.2 172.2 195 208l-147.8-391.5z"/>
							</g>
						</g>
						<g id="&lt;Group&gt;">
							<g id="&lt;Group&gt;">
								<path id="&lt;Path&gt;" class="s7" d="m3141.8 1243.8q0 1.8-0.1 3.6c-5.5 125.7-123 116.1-123 116.1 0 0 0.2 6.3-1.1 17.7-5.7 48.6-39.9 189.5-242.1 316.7-158.2 99.5-340.7 126.4-340.7 126.4-30.9 3.8-59 4.3-84.6 2.2-239.9-20.1-254.6-275.1-254.6-275.1-111-145.7-146-287-156.8-355.4q0 0-0.1 0c-4.2-27-4.8-42.6-4.8-42.6 0 0-8.8 1.1-22.3 0.9-1.1 0-2.1 0-3.2-0.1-4.3-0.1-9-0.3-14.1-0.7q-1.7-0.2-3.5-0.3c-1.2-0.2-2.3-0.3-3.5-0.4-1.1-0.1-2.3-0.3-3.5-0.5q-1.7-0.2-3.5-0.5c-1.2-0.1-2.4-0.3-3.6-0.5q-3.6-0.7-7.4-1.4c-2.4-0.5-4.9-1-7.4-1.6 0-0.1-0.1-0.1-0.1-0.1-26.4-6.4-55-19.2-75.7-44.2 0 0 54.9-13.5 88.1-21.8 0 0-73.6-20.7-122.4-62.1 0 0 96.8-89.2 181.4-201.1 141-186.6 618.4-480.9 961.8-124.4 0 0 192.8 78.8 149.2 422.9 0 0 8.5 0.4 20.4 3.8 14.6 4.2 34.4 13.1 50.2 31.6 0 0 0 0 0.1 0.1h0.1c15.9 18.7 28 47.2 26.8 90.8z"/>
							</g>
							<g id="&lt;Group&gt;">
								<path id="&lt;Path&gt;" class="s8" d="m3115 1153h-0.1c1.1 3 37 100.7-37.5 127.2-50.5 18-80.3-18.5-94.5-44.8-6.9-17.5-12.6-28.1-12.6-28.1 0 0 0.7-0.6 1.9-1.7-0.6-0.6-1.2-1.2-1.8-1.8-22-21.2-165-132.9-167.2-134.6 2.5 3.9 87 93.9 114.6 273.5 21.5 139.5-80.9 379.4-567.6 483.8 25.6 2.1 53.7 1.6 84.6-2.2 0 0 182.5-26.9 340.7-126.4 134-84.3 194.2-174.5 221.2-240 0.8-16.6 3.5-35.4 7.5-55.1 1.9-9.5 3.1-19.1 3.7-28.7 2.7 2.2 6 4.6 9.7 7.1 1.3-11.4 1.1-17.7 1.1-17.7 0 0 117.5 9.6 123-116.1q0.1-1.8 0.1-3.6c1.2-43.6-10.9-72.1-26.8-90.8z"/>
							</g>
							<g id="&lt;Group&gt;">
								<path id="&lt;Path&gt;" class="s8" d="m2807.4 1067.6c-1.4 0.6-2.8 1.1-4.2 1.6-171.3 59.6-278.3-125.8-278.3-125.8-228.4 189.3-586.1 252.6-586.1 252.6q0 0-0.1 0c-4.2-27-4.8-42.6-4.8-42.6 0 0 357.5-55.3 621.9-290.2 0 0 0 0.8 0.3 2.4v0.2c2.8 22.9 31.4 192.8 251.3 201.8z"/>
							</g>
							<g id="&lt;Group&gt;">
								<path id="&lt;Path&gt;" class="s12" d="m3044.2 1117.5c-76.6 17.9-73.9 89.8-73.9 89.8-111.9 11-160.3-139.6-160.3-139.6-0.8 0-1.7 0-2.6-0.1-219.9-9-248.5-178.9-251.3-201.8v-0.2c-0.3-1.6-0.3-2.4-0.3-2.4-264.4 234.9-621.9 290.2-621.9 290.2 0 0-33.9 4.1-72.1-5.2-26.4-6.4-54.9-19.2-75.7-44.1 0-0.1 0-0.1 0-0.1 0 0 6.1-1.5 15.5-3.8 18.8-4.6 50.5-12.4 72.6-18 0 0-44.8-12.6-87.7-37.7-12-7.2-24-15.3-34.7-24.4 0 0 3.6-3.4 9.9-9.6 16.8-16.5 53.4-53.2 95.6-100.7 22.9-25.6 47.3-54.5 71.3-84.9 1.6-2 3.1-4 4.6-5.9 167.6-215.2 497.8-412.4 804.1-246.6 49.6 26.8 98.7 63.2 146.3 110.7 0.3 0.3 0.6 0.6 0.9 0.8l0.9 0.9c0.4 0.4 0.5 0.6 0.5 0.6q4.6 4.5 9.1 9.2c0 0 0 0 0.1 0.1 0 0 0.2 0.1 0.4 0.1 1.7 0.7 8.3 3.8 18 10q0.3 0.2 0.6 0.4c47.6 30.6 165.1 135.8 130.1 412.3z"/>
							</g>
							<g id="&lt;Group&gt;">
								<path id="&lt;Path&gt;" class="s18" d="m3044.2 1117.5c-76.6 17.9-73.9 89.8-73.9 89.8-111.9 11-160.3-139.6-160.3-139.6 117.1-43.5 97.5-197.9 97.5-197.9 19.6 49.7 45.6 89.1 45.6 89.1 31.7-123.8-55.7-260.6-58-264.2 0 0 0.2 0.1 0.4 0.1 1.7 1 8.1 4.4 18 10q0.3 0.2 0.6 0.4c47.6 30.6 165.1 135.8 130.1 412.3z"/>
							</g>
							<g id="&lt;Group&gt;">
								<path id="&lt;Path&gt;" class="s18" d="m1751.9 1011.8c0 0 151.1 16.5 278.5-13.5 0 0-96.5 171.1-278.5 13.5z"/>
							</g>
							<g id="&lt;Group&gt;" style="opacity: .3">
								<path id="&lt;Path&gt;" class="s0" d="m2883.6 683.1c-18.5-17.8-146.9-132.1-394.5-130.8-268.4 1.3-477.8 226.6-577.3 344.1-75.9 89.6-129.2 109.6-150.1 114.1 26.5-26 102-102.1 171.5-191.5 167.6-215.2 497.8-412.4 804.1-246.6 49.6 26.8 98.7 63.2 146.3 110.7z"/>
							</g>
							<g id="&lt;Group&gt;">
								<path id="&lt;Path&gt;" class="s18" d="m2556.1 865.6c-0.3-1.6-0.3-2.4-0.3-2.4-264.4 234.9-621.9 290.2-621.9 290.2 0 0-97 11.8-147.8-49.3 5 1.5 255.3 76.3 769.7-254.7 0 0 0.5 5.9 0.3 16.2z"/>
							</g>
							<g id="&lt;Group&gt;">
								<g id="&lt;Group&gt;">
									<path id="&lt;Path&gt;" class="s2" d="m2958.3 1220.7c-97.1 0-145.4-108.6-157.5-140.6-189.4-10.4-240.4-138.9-253.5-192.6-262.3 222.4-607.9 278-611.4 278.6-7 1.1-13.6-3.7-14.6-10.7-1.1-7 3.7-13.6 10.7-14.7 3.5-0.5 357-57.5 615.2-287.1 3.7-3.2 8.8-4.1 13.3-2.3 4.5 1.8 7.6 6 8 10.9 0.7 7.5 18.3 184.9 242 192.7 5.4 0.2 10.1 3.8 11.7 8.9 0.5 1.4 43.3 130.4 135.9 131.3 3.5-30.5 23.6-76.1 83.2-90.1 6.9-1.6 13.8 2.7 15.4 9.6 1.6 6.8-2.6 13.7-9.5 15.4-65.1 15.2-64.1 74.4-64.1 76.9 0.2 6.7-4.8 12.5-11.5 13.1q-6.8 0.7-13.3 0.7z"/>
								</g>
								<g id="&lt;Group&gt;">
									<path id="&lt;Path&gt;" class="s2" d="m2276.8 1415.1c24.2 52.1 9.9 110.1-31.9 129.5-41.8 19.5-95.3-7-119.5-59.1-24.3-52.1-10-110 31.8-129.5 41.8-19.4 95.3 7 119.6 59.1z"/>
								</g>
								<g id="&lt;Group&gt;">
									<path id="&lt;Path&gt;" class="s0" d="m2195.8 1447.8c6.5 18.9 0.2 38.2-14.1 43.2-14.3 5-31.3-6.3-37.8-25.2-6.6-18.8-0.3-38.2 14.1-43.1 14.3-5 31.2 6.3 37.8 25.1z"/>
								</g>
								<g id="&lt;Group&gt;" style="opacity: .3">
									<path id="&lt;Path&gt;" class="s0" d="m2268.6 1463.7c1.1 14.6-7.5 27.2-19.3 28-11.7 0.9-22.1-10.3-23.2-24.9-1.1-14.6 7.6-27.2 19.3-28 11.8-0.9 22.2 10.3 23.2 24.9z"/>
								</g>
								<g id="&lt;Group&gt;">
									<g id="&lt;Group&gt;">
										<path id="&lt;Path&gt;" class="s7" d="m2152.1 1555.3c50.2-45.5 141.4-54.4 141.4-54.4 0 0-16.2 34.9-55 49-38.8 14.1-86.4 5.4-86.4 5.4z"/>
									</g>
									<g id="&lt;Group&gt;">
										<path id="&lt;Path&gt;" class="s2" d="m2294.2 1508.8c-47.9 13.2-95.8 25-140.2 48.5-2.5 1.6-5.5-1.7-3.7-4.1 15.5-22 39.9-36.5 64.6-46.1 25.1-9.1 50.9-14.9 77.8-14.1 4.4 0.2 7.9 3.9 7.7 8.3-0.2 3.7-2.8 6.6-6.2 7.5z"/>
									</g>
								</g>
								<g id="&lt;Group&gt;">
									<path id="&lt;Path&gt;" class="s2" d="m2681.8 1269.7c-54.7 22.3-106.7 57.5-125.1 115.5 2.9-10.3-8.9-19.7-18.4-14.2 16.2-8.9 33.4-16.2 50.9-21.9 26.2-8.6 53.3-14.4 80.8-15.9 3.8-0.2 5.1 5.5 1.4 6.8-37.9 13.7-73.9 29-109.3 47.3-2.4 1.3-9.6 5.2-11.9 6.5-8 4.3-19.5-2.4-18.8-12.2 0.2-2.9 0.4-2.6 0.6-3.5 11.1-36.9 36.6-69 68.8-89.6 23.8-15.8 51.4-25.5 79.2-26.8 4.5-0.3 6.1 6.2 1.8 8z"/>
								</g>
								<g id="&lt;Group&gt;">
									<path id="&lt;Path&gt;" class="s2" d="m2090.7 1312.5c4.5-39.6 45.9-71.4 85.4-64.3 12.7 1.6 24.8 7.4 34.8 15.1 1.2 0.9 1.4 2.5 0.5 3.7-0.4 0.6-1.1 1-1.8 1.1-6.4 0.6-12.3-0.1-18 0.1-40.4-0.9-68.8 17.7-96.2 46.3-1.6 2-5.1 0.5-4.7-2z"/>
								</g>
								<g id="&lt;Group&gt;">
									<path id="&lt;Path&gt;" class="s2" d="m2493.7 1235.7c-7.2-39.2 23.2-81.6 63.1-86.3 12.6-2.1 25.9-0.1 37.7 4.4 1.4 0.5 2.1 2 1.6 3.4-0.3 0.7-0.9 1.3-1.5 1.5-6 2.5-11.8 3.5-17.2 5.4-38.9 10.8-60.8 36.8-78.6 72.1-1 2.4-4.8 2.1-5.1-0.5z"/>
								</g>
								<g id="&lt;Group&gt;">
									<g id="&lt;Group&gt;">
										<path id="&lt;Path&gt;" class="s0" d="m2365.4 1558c0 0 82.4-2.6 157-69.5 0 0 18.2 111.4-43 125.9-61.1 14.5-114-56.4-114-56.4z"/>
									</g>
									<g id="&lt;Group&gt;">
										<path id="&lt;Path&gt;" class="s2" d="m2469.6 1577.4c16.1-10.9 32.7-22.9 46.2-36.6 3.9-4 10.3-4.1 14.3-0.2 5 4.7 3.6 13.4-2.6 16.3-18.8 9.4-38 15.1-57.9 20.5z"/>
									</g>
									<g id="&lt;Group&gt;">
										<path id="&lt;Path&gt;" class="s2" d="m2404.9 1588.9c15.7 1.2 31.9-0.3 47.3-4.3-14.4 8.6-30.1 14.7-46.6 18.2-10.6 1.5-11.3-14.4-0.7-13.9z"/>
									</g>
									<g id="&lt;Group&gt;">
										<path id="&lt;Compound Path&gt;" class="s2" d="m2353.9 1552.4c2-4 8.4-8 13.3-7 55.2 1.8 111.2-24.4 146.7-66.4 5.7-7.3 18.1-4.5 20.3 4.3 0 0 0.9 3.2 0.9 3.2 2.9 45.4 3.1 115.2-47.4 134.9-47.6 14.9-93.7-16.4-125.9-48.8-1.5-1.5-4.4-4.4-5.8-6-2.9-2.9-4.1-10.5-2.1-14.2zm23 11.1c2.3-3.1 1.7-10-0.8-12.5 2.8 4.2 5.9 8.3 9.2 12.1 20.2 24.1 49.1 45.7 81.7 44.2 54.1-3.6 50.1-77.6 42.8-116.7 0 0 21.2 7.5 21.2 7.5-49.6 33.2-103.4 59.5-161.9 72.1 0 0-1.6 0.3-1.6 0.3h-0.3c3.7 0.2 8.7-3.6 9.7-7z"/>
									</g>
								</g>
							</g>
							<g id="&lt;Group&gt;">
								<path id="&lt;Compound Path&gt;" class="s2" d="m2380.8 1840.6c-75.4 0-138.6-21-188.3-62.5-92.1-76.9-107.3-198-109.4-222-132.3-175.1-156.7-341.6-161.1-389.1-29.8 1.1-102.3-2.5-145.8-54.8-2.8-3.4-3.7-8-2.3-12.2 1.4-4.2 4.8-7.4 9.1-8.4 0 0 22.2-5.5 46.9-11.6-26-10.7-59.5-27.3-86.4-50.2-2.8-2.4-4.4-5.9-4.5-9.6 0-3.7 1.6-7.3 4.4-9.7 0.9-0.9 98.8-88.1 179.5-199 97.1-133.6 294.9-295.4 532.7-311.9 164.5-11.3 319 52.4 446.9 184.3 11.2 5.3 54.9 28.4 94 85.9 39.4 57.7 81.5 162.6 62 336.8 15.8 3.2 42.3 11.9 63.6 35.1 23.5 25.5 34.4 61.2 32.4 106.2-1.9 42.2-15.7 74.9-41.1 97.3-28.3 24.9-63.5 30.2-82.4 31.1-3.6 45.3-32.3 196.3-248.7 332.4-158.7 99.8-338 127.2-345.6 128.3q-0.1 0-0.3 0-28.8 3.6-55.6 3.6zm54-16.3h0.1zm-501-683.7c3.1 0 6.1 1.1 8.4 3.1 2.7 2.3 4.3 5.7 4.5 9.3 0 1.9 8.8 193.4 159 390.6 1.6 2.1 2.5 4.5 2.6 7.1 0.1 1.2 8.8 131.3 100.7 207.9 55.9 46.5 131.2 64.4 224.1 53 5.8-0.9 183.3-28.9 335.5-124.6 239.2-150.4 237.3-321.4 237.2-323.1-0.1-3.7 1.4-7.2 4-9.7 2.7-2.5 6.3-3.8 9.9-3.5 0.4 0 45.2 3.1 76.8-24.9 19.9-17.6 30.8-44.2 32.3-79 1.7-37.9-6.9-67.5-25.6-87.8-24.9-27-59.2-28.7-59.5-28.7-3.6-0.2-7-1.8-9.3-4.5-2.3-2.8-3.3-6.4-2.9-9.9 41.8-330.5-139.5-408.7-141.4-409.4-1.6-0.7-3.1-1.7-4.4-3-124.5-129.3-268.7-189.3-428.4-178.3-228.9 15.8-419.9 172.2-513.8 301.3-66.1 90.9-143.5 166.2-172 192.8 45.4 33.2 105.4 50.4 106.1 50.6 5.6 1.6 9.4 6.7 9.3 12.5-0.1 5.8-4.1 10.9-9.7 12.3-19.6 4.9-46.8 11.6-65.8 16.3 47.8 37.8 120.1 29.8 120.9 29.7q0.8-0.1 1.5-0.1z"/>
							</g>
						</g>
					</g>
				</g>
				<g id="&lt;Group&gt;">
					<g id="&lt;Group&gt;">
						<path id="&lt;Path&gt;" class="s0" d="m1737.3 1591.7c21.9-25.5 35.9-58.1 38-94.2 5.1-87.7-61.8-162.9-149.5-168-87.7-5.1-162.9 61.8-168 149.5-5.1 87.7 61.8 162.9 149.5 168 24.4 1.5 47.8-2.7 69.1-11.3l70 28z"/>
					</g>
					<g id="&lt;Group&gt;" style="opacity: .5">
						<g id="&lt;Group&gt;">
							<path id="&lt;Path&gt;" class="s0" d="m1624 1360c81.9 4.8 145.7 70.7 149.6 150.9 0.9-5.5 1.6-11.2 1.9-16.9 5.1-87.7-61.8-162.9-149.5-168-87.7-5.1-162.9 61.8-168 149.5q-0.5 8.7-0.1 17.1c13.1-79.2 84.2-137.4 166.1-132.6z"/>
						</g>
					</g>
					<g id="&lt;Group&gt;">
						<path id="&lt;Compound Path&gt;" class="s2" d="m1746.4 1677.7c-1.8 0-3.5-0.4-5.2-1l-64.9-26.1c-22.4 8.3-45.8 11.7-69.8 10.4-46.1-2.7-88.4-23.2-119.2-57.7-30.7-34.5-46.1-79-43.4-125.1 5.5-95.2 87.4-168.1 182.7-162.6 46.1 2.6 88.5 23.1 119.2 57.6 30.7 34.6 46.1 79 43.5 125.1-2.1 36-15 69.6-37.4 97.7l8.3 66c0.6 4.9-1.4 9.7-5.3 12.7-2.5 2-5.5 3-8.5 3zm-70-56c1.7 0 3.5 0.4 5.1 1l48.1 19.3-6.1-48.5c-0.5-4 0.7-7.9 3.3-10.9 20.8-24.2 32.8-54 34.6-85.9 2.3-38.7-10.7-76-36.4-104.9-25.8-29-61.3-46.2-100-48.4-79.9-4.6-148.7 56.6-153.3 136.4-2.3 38.7 10.7 76 36.5 104.9 25.7 29 61.2 46.2 99.9 48.4 21.8 1.3 43-2.2 63-10.4 1.7-0.6 3.5-1 5.3-1z"/>
					</g>
					<g id="&lt;Group&gt;" style="opacity: .3">
						<path id="&lt;Path&gt;" class="s2" d="m1738.5 1590.3c-48.9 29.5-110.7 35.8-167.2 11.6-62.6-26.8-102.7-84.2-110.2-147.3-1.7 7.9-2.8 16.1-3.3 24.4-5.1 87.7 61.8 162.9 149.5 168 24.4 1.5 47.8-2.7 69.1-11.3l70 28-9.1-72q0.6-0.7 1.2-1.4z"/>
					</g>
					<g id="&lt;Group&gt;">
						<path id="&lt;Path&gt;" class="s19" d="m1667 1443.6c-13.8-13.8-36.1-11.3-49.8 2.5l-2.2 2.1-2.1-2.1c-13.8-13.8-36.1-16.3-49.9-2.5-13.7 13.8-13.7 36.1 0 49.9l2.2 2.1 43.3 43.3c3.6 3.6 9.5 3.6 13.1 0l43.3-43.3 2.1-2.1c13.8-13.8 13.8-36.1 0-49.9z"/>
					</g>
				</g>
			</g>
		</g>
	</g>
</svg>